<svg width="550" height="550" viewBox="0 0 550 550" fill="none" xmlns="http://www.w3.org/2000/svg">
<path d="M235.787 18.039C256.829 -5.0554 293.171 -5.0554 314.213 18.039C328.171 33.3592 349.773 39.1475 369.521 32.8589C399.291 23.3792 430.765 41.5506 437.44 72.0716C441.868 92.3184 457.682 108.132 477.928 112.56C508.449 119.235 526.621 150.709 517.141 180.479C510.852 200.227 516.641 221.829 531.961 235.787C555.055 256.829 555.055 293.171 531.961 314.213C516.641 328.171 510.852 349.773 517.141 369.521C526.621 399.291 508.449 430.765 477.928 437.44C457.682 441.868 441.868 457.682 437.44 477.928C430.765 508.449 399.291 526.621 369.521 517.141C349.773 510.852 328.171 516.641 314.213 531.961C293.171 555.055 256.829 555.055 235.787 531.961C221.829 516.641 200.227 510.852 180.479 517.141C150.709 526.621 119.235 508.449 112.56 477.928C108.132 457.682 92.3184 441.868 72.0716 437.44C41.5506 430.765 23.3792 399.291 32.8589 369.521C39.1475 349.773 33.3592 328.171 18.039 314.213C-5.0554 293.171 -5.0554 256.829 18.039 235.787C33.3592 221.829 39.1475 200.227 32.8589 180.479C23.3792 150.709 41.5506 119.235 72.0716 112.56C92.3184 108.132 108.132 92.3184 112.56 72.0716C119.235 41.5506 150.709 23.3792 180.479 32.8589C200.227 39.1475 221.829 33.3592 235.787 18.039Z" fill="white"/>
</svg>
