<svg width="21" height="20" viewBox="0 0 21 20" fill="none" xmlns="http://www.w3.org/2000/svg">
<g clip-path="url(#clip0_548_558)">
<path d="M19.6667 17.5C19.4457 17.5 19.2337 17.4122 19.0774 17.2559C18.9211 17.0996 18.8333 16.8876 18.8333 16.6666V12.5C18.3742 1.44162 2.62167 1.45079 2.16667 12.5V16.6666C2.16667 16.8876 2.07887 17.0996 1.92259 17.2559C1.76631 17.4122 1.55435 17.5 1.33333 17.5C1.11232 17.5 0.900358 17.4122 0.744078 17.2559C0.587797 17.0996 0.5 16.8876 0.5 16.6666V12.5C1.05083 -0.770048 19.9542 -0.759215 20.5 12.5V16.6666C20.5 16.8876 20.4122 17.0996 20.2559 17.2559C20.0996 17.4122 19.8877 17.5 19.6667 17.5ZM17.1667 16.6666V12.5C16.8333 3.66662 4.16667 3.67245 3.83333 12.5V16.6666C3.83333 16.8876 3.92113 17.0996 4.07741 17.2559C4.23369 17.4122 4.44565 17.5 4.66667 17.5C4.88768 17.5 5.09964 17.4122 5.25592 17.2559C5.4122 17.0996 5.5 16.8876 5.5 16.6666V12.5C5.71083 5.88995 15.2917 5.89495 15.5 12.5V16.6666C15.5 16.8876 15.5878 17.0996 15.7441 17.2559C15.9004 17.4122 16.1123 17.5 16.3333 17.5C16.5543 17.5 16.7663 17.4122 16.9226 17.2559C17.0789 17.0996 17.1667 16.8876 17.1667 16.6666ZM13.8333 16.6666V12.5C13.8333 11.6159 13.4821 10.7681 12.857 10.1429C12.2319 9.51781 11.3841 9.16662 10.5 9.16662C9.61594 9.16662 8.7681 9.51781 8.14298 10.1429C7.51786 10.7681 7.16667 11.6159 7.16667 12.5V16.6666C7.16667 16.8876 7.25446 17.0996 7.41074 17.2559C7.56702 17.4122 7.77899 17.5 8 17.5C8.22101 17.5 8.43297 17.4122 8.58926 17.2559C8.74554 17.0996 8.83333 16.8876 8.83333 16.6666V12.5C8.83333 12.0579 9.00893 11.634 9.32149 11.3214C9.63405 11.0089 10.058 10.8333 10.5 10.8333C10.942 10.8333 11.3659 11.0089 11.6785 11.3214C11.9911 11.634 12.1667 12.0579 12.1667 12.5V16.6666C12.1667 16.8876 12.2545 17.0996 12.4107 17.2559C12.567 17.4122 12.779 17.5 13 17.5C13.221 17.5 13.433 17.4122 13.5893 17.2559C13.7455 17.0996 13.8333 16.8876 13.8333 16.6666Z" fill="#353535"/>
</g>
<defs>
<clipPath id="clip0_548_558">
<rect width="20" height="20" fill="white" transform="translate(0.5)"/>
</clipPath>
</defs>
</svg>
