<svg width="21" height="20" viewBox="0 0 21 20" fill="none" xmlns="http://www.w3.org/2000/svg">
<g clip-path="url(#clip0_96_1966)">
<path d="M17.1667 2.5C17.1667 1.12167 16.045 0 14.6667 0H3C1.62167 0 0.5 1.12167 0.5 2.5V4.16667C0.5 5.545 1.62167 6.66667 3 6.66667H14.6667C16.045 6.66667 17.1667 5.545 17.1667 4.16667C18.0858 4.16667 18.8333 4.91417 18.8333 5.83333V6.66667C18.8333 7.58583 18.0858 8.33333 17.1667 8.33333H11.3333C9.495 8.33333 8 9.82833 8 11.6667V11.82C7.0325 12.165 6.33333 13.0817 6.33333 14.1667V17.5C6.33333 18.8783 7.455 20 8.83333 20C10.2117 20 11.3333 18.8783 11.3333 17.5V14.1667C11.3333 13.0817 10.6342 12.165 9.66667 11.82V11.6667C9.66667 10.7475 10.4142 10 11.3333 10H17.1667C19.005 10 20.5 8.505 20.5 6.66667V5.83333C20.5 3.995 19.005 2.5 17.1667 2.5ZM15.5 4.16667C15.5 4.62667 15.1258 5 14.6667 5H3C2.54083 5 2.16667 4.62667 2.16667 4.16667V2.5C2.16667 2.04 2.54083 1.66667 3 1.66667H14.6667C15.1258 1.66667 15.5 2.04 15.5 2.5V4.16667ZM9.66667 17.5C9.66667 17.96 9.2925 18.3333 8.83333 18.3333C8.37417 18.3333 8 17.96 8 17.5V14.1667C8 13.7067 8.37417 13.3333 8.83333 13.3333C9.2925 13.3333 9.66667 13.7067 9.66667 14.1667V17.5Z" fill="#353535"/>
</g>
<defs>
<clipPath id="clip0_96_1966">
<rect width="20" height="20" fill="white" transform="translate(0.5)"/>
</clipPath>
</defs>
</svg>
