<svg width="20" height="20" viewBox="0 0 20 20" fill="none" xmlns="http://www.w3.org/2000/svg">
<g clip-path="url(#clip0_108_688)">
<path d="M10.8333 16.6667C11.938 16.6654 12.997 16.2259 13.7781 15.4448C14.5592 14.6637 14.9986 13.6047 15 12.5V5.20251C15.0013 4.76448 14.9156 4.33055 14.7479 3.92586C14.5803 3.52118 14.334 3.1538 14.0233 2.84501L12.155 0.976681C11.8462 0.665993 11.4788 0.419684 11.0741 0.252031C10.6694 0.0843791 10.2355 -0.00128163 9.79746 1.44913e-05H5.83329C4.72863 0.00133771 3.66959 0.440749 2.88848 1.22186C2.10736 2.00298 1.66795 3.06202 1.66663 4.16668V12.5C1.66795 13.6047 2.10736 14.6637 2.88848 15.4448C3.66959 16.2259 4.72863 16.6654 5.83329 16.6667H10.8333ZM3.33329 12.5V4.16668C3.33329 3.50364 3.59668 2.86776 4.06553 2.39891C4.53437 1.93007 5.17025 1.66668 5.83329 1.66668C5.83329 1.66668 9.93246 1.67835 9.99996 1.68668V3.33335C9.99996 3.77538 10.1756 4.1993 10.4881 4.51186C10.8007 4.82442 11.2246 5.00001 11.6666 5.00001H13.3133C13.3216 5.06751 13.3333 12.5 13.3333 12.5C13.3333 13.1631 13.0699 13.7989 12.6011 14.2678C12.1322 14.7366 11.4963 15 10.8333 15H5.83329C5.17025 15 4.53437 14.7366 4.06553 14.2678C3.59668 13.7989 3.33329 13.1631 3.33329 12.5ZM18.3333 6.66668V15.8333C18.332 16.938 17.8926 17.9971 17.1114 18.7782C16.3303 19.5593 15.2713 19.9987 14.1666 20H6.66663C6.44561 20 6.23365 19.9122 6.07737 19.7559C5.92109 19.5997 5.83329 19.3877 5.83329 19.1667C5.83329 18.9457 5.92109 18.7337 6.07737 18.5774C6.23365 18.4211 6.44561 18.3333 6.66663 18.3333H14.1666C14.8297 18.3333 15.4656 18.07 15.9344 17.6011C16.4032 17.1323 16.6666 16.4964 16.6666 15.8333V6.66668C16.6666 6.44567 16.7544 6.23371 16.9107 6.07743C17.067 5.92115 17.2789 5.83335 17.5 5.83335C17.721 5.83335 17.9329 5.92115 18.0892 6.07743C18.2455 6.23371 18.3333 6.44567 18.3333 6.66668Z" fill="#353535"/>
</g>
<defs>
<clipPath id="clip0_108_688">
<rect width="20" height="20" fill="white"/>
</clipPath>
</defs>
</svg>
