<svg width="24" height="24" viewBox="0 0 24 24" fill="none" xmlns="http://www.w3.org/2000/svg">
<g clip-path="url(#clip0_47_1445)">
<path d="M2.886 6.836C3.04927 6.83653 3.21019 6.79707 3.3547 6.72106C3.49921 6.64506 3.62291 6.53483 3.715 6.4C4.45842 5.29956 5.41327 4.35796 6.524 3.63C6.63378 3.55778 6.72827 3.46463 6.80206 3.35589C6.87584 3.24715 6.92749 3.12494 6.95405 2.99623C6.98061 2.86753 6.98155 2.73486 6.95684 2.60579C6.93212 2.47672 6.88223 2.35379 6.81 2.244C6.73777 2.13422 6.64463 2.03973 6.53589 1.96595C6.42714 1.89216 6.30493 1.84051 6.17623 1.81395C6.04753 1.78739 5.91486 1.78645 5.78579 1.81116C5.65672 1.83588 5.53378 1.88578 5.424 1.958C4.09395 2.82984 2.95046 3.95735 2.06 5.275C1.95818 5.42524 1.89917 5.60036 1.8893 5.78158C1.87942 5.9628 1.91905 6.14329 2.00393 6.30371C2.08881 6.46413 2.21575 6.59842 2.37114 6.69219C2.52653 6.78596 2.70451 6.83567 2.886 6.836Z" fill="black"/>
<path d="M2 12C1.99982 11.3389 2.06446 10.6795 2.193 10.031C2.22083 9.90144 2.22263 9.76764 2.19829 9.63737C2.17395 9.5071 2.12396 9.38297 2.05123 9.27218C1.9785 9.1614 1.88447 9.06619 1.77462 8.99206C1.66476 8.91794 1.54127 8.86639 1.41132 8.84041C1.28136 8.81444 1.14754 8.81455 1.01764 8.84074C0.887728 8.86694 0.764322 8.91869 0.654591 8.993C0.54486 9.06731 0.450993 9.16268 0.378445 9.27358C0.305898 9.38449 0.256118 9.5087 0.231999 9.63901C-0.077989 11.1998 -0.077989 12.8063 0.231999 14.367C0.278105 14.5929 0.400835 14.7959 0.579418 14.9417C0.758001 15.0875 0.981468 15.1671 1.212 15.167C1.27913 15.1673 1.34612 15.1609 1.412 15.148C1.67204 15.0959 1.90073 14.9426 2.04776 14.7219C2.19479 14.5012 2.24811 14.2311 2.196 13.971C2.06625 13.322 2.0006 12.6618 2 12Z" fill="black"/>
<path d="M6.528 20.372C5.41705 19.6456 4.46181 18.7053 3.718 17.606C3.64426 17.4973 3.54983 17.4041 3.4401 17.3319C3.33036 17.2596 3.20747 17.2097 3.07845 17.185C2.81786 17.135 2.5481 17.1906 2.3285 17.3395C2.1089 17.4884 1.95746 17.7185 1.90748 17.979C1.8575 18.2396 1.91308 18.5094 2.062 18.729C2.95428 20.0466 4.09986 21.1735 5.432 22.044C5.65372 22.1899 5.92431 22.2417 6.18423 22.188C6.44416 22.1344 6.67213 21.9797 6.818 21.758C6.96387 21.5363 7.01569 21.2657 6.96205 21.0058C6.90842 20.7458 6.75372 20.5179 6.532 20.372H6.528Z" fill="black"/>
<path d="M12 0C11.2718 0.00124052 10.5452 0.0681785 9.829 0.2C9.58319 0.244507 9.36294 0.379402 9.2116 0.578139C9.06025 0.776877 8.98876 1.02506 9.01121 1.27386C9.03366 1.52265 9.14841 1.75404 9.33288 1.92247C9.51736 2.09091 9.7582 2.18421 10.008 2.184C10.0687 2.18355 10.1292 2.1782 10.189 2.168C10.7863 2.05729 11.3925 2.00106 12 2V22C11.3926 22.0003 10.7865 21.9454 10.189 21.836C9.92803 21.7883 9.65878 21.8461 9.44049 21.9969C9.22219 22.1477 9.07274 22.379 9.025 22.64C8.97726 22.901 9.03515 23.1702 9.18593 23.3885C9.33671 23.6068 9.56803 23.7563 9.829 23.804C11.5597 24.1206 13.3387 24.053 15.0404 23.6062C16.7421 23.1593 18.3248 22.344 19.6766 21.218C21.0285 20.092 22.1164 18.6827 22.8635 17.0898C23.6105 15.4969 23.9985 13.7594 24 12C23.9966 8.81846 22.7312 5.76821 20.4815 3.51852C18.2318 1.26883 15.1815 0.00344108 12 0Z" fill="black"/>
</g>
<defs>
<clipPath id="clip0_47_1445">
<rect width="24" height="24" fill="white"/>
</clipPath>
</defs>
</svg>
