<svg width="24" height="24" viewBox="0 0 24 24" fill="none" xmlns="http://www.w3.org/2000/svg">
<circle cx="12" cy="12" r="12" fill="#F5C000"/>
<path d="M16.1952 8.19519C16.0702 8.07021 15.9006 8 15.7239 8C15.5471 8 15.3775 8.07021 15.2525 8.19519L12.1952 11.2525L9.13786 8.19519C9.01284 8.07021 8.8433 8 8.66652 8C8.48975 8 8.32021 8.07021 8.19519 8.19519C8.07021 8.32021 8 8.48975 8 8.66652C8 8.8433 8.07021 9.01284 8.19519 9.13786L11.2525 12.1952L8.19519 15.2525C8.07021 15.3775 8 15.5471 8 15.7239C8 15.9006 8.07021 16.0702 8.19519 16.1952C8.32021 16.3202 8.48975 16.3904 8.66652 16.3904C8.8433 16.3904 9.01284 16.3202 9.13786 16.1952L12.1952 13.1379L15.2525 16.1952C15.3775 16.3202 15.5471 16.3904 15.7239 16.3904C15.9006 16.3904 16.0702 16.3202 16.1952 16.1952C16.3202 16.0702 16.3904 15.9006 16.3904 15.7239C16.3904 15.5471 16.3202 15.3775 16.1952 15.2525L13.1379 12.1952L16.1952 9.13786C16.3202 9.01284 16.3904 8.8433 16.3904 8.66652C16.3904 8.48975 16.3202 8.32021 16.1952 8.19519Z" fill="black"/>
</svg>
