<svg width="20" height="20" viewBox="0 0 20 20" fill="none" xmlns="http://www.w3.org/2000/svg">
<g clip-path="url(#clip0_90_477)">
<path d="M15.8333 0.833374H4.16667C1.86917 0.833374 0 2.70254 0 5.00004V15C0 17.2975 1.86917 19.1667 4.16667 19.1667H15.8333C18.1308 19.1667 20 17.2975 20 15V5.00004C20 2.70254 18.1308 0.833374 15.8333 0.833374ZM18.3333 15C18.3333 16.3784 17.2117 17.5 15.8333 17.5H4.16667C2.78833 17.5 1.66667 16.3784 1.66667 15V5.00004C1.66667 3.62171 2.78833 2.50004 4.16667 2.50004H15.8333C17.2117 2.50004 18.3333 3.62171 18.3333 5.00004V15ZM15.8333 5.83337C15.8333 6.29337 15.46 6.66671 15 6.66671H9.16667C8.70667 6.66671 8.33333 6.29337 8.33333 5.83337C8.33333 5.37337 8.70667 5.00004 9.16667 5.00004H15C15.46 5.00004 15.8333 5.37337 15.8333 5.83337ZM6.66667 5.83337C6.66667 6.52337 6.10667 7.08337 5.41667 7.08337C4.72667 7.08337 4.16667 6.52337 4.16667 5.83337C4.16667 5.14337 4.72667 4.58337 5.41667 4.58337C6.10667 4.58337 6.66667 5.14337 6.66667 5.83337ZM15.8333 10C15.8333 10.46 15.46 10.8334 15 10.8334H9.16667C8.70667 10.8334 8.33333 10.46 8.33333 10C8.33333 9.54004 8.70667 9.16671 9.16667 9.16671H15C15.46 9.16671 15.8333 9.54004 15.8333 10ZM6.66667 10C6.66667 10.69 6.10667 11.25 5.41667 11.25C4.72667 11.25 4.16667 10.69 4.16667 10C4.16667 9.31004 4.72667 8.75004 5.41667 8.75004C6.10667 8.75004 6.66667 9.31004 6.66667 10ZM15.8333 14.1667C15.8333 14.6267 15.46 15 15 15H9.16667C8.70667 15 8.33333 14.6267 8.33333 14.1667C8.33333 13.7067 8.70667 13.3334 9.16667 13.3334H15C15.46 13.3334 15.8333 13.7067 15.8333 14.1667ZM6.66667 14.1667C6.66667 14.8567 6.10667 15.4167 5.41667 15.4167C4.72667 15.4167 4.16667 14.8567 4.16667 14.1667C4.16667 13.4767 4.72667 12.9167 5.41667 12.9167C6.10667 12.9167 6.66667 13.4767 6.66667 14.1667Z" fill="#353535"/>
</g>
<defs>
<clipPath id="clip0_90_477">
<rect width="20" height="20" fill="white"/>
</clipPath>
</defs>
</svg>
