<svg width="24" height="24" viewBox="0 0 24 24" fill="none" xmlns="http://www.w3.org/2000/svg">
<g clip-path="url(#clip0_47_1357)">
<path d="M19 0H5C2.243 0 0 2.243 0 5V19C0 21.757 2.243 24 5 24H19C21.757 24 24 21.757 24 19V5C24 2.243 21.757 0 19 0ZM22 19C22 20.654 20.654 22 19 22H5C3.346 22 2 20.654 2 19V5C2 3.346 3.346 2 5 2H19C20.654 2 22 3.346 22 5V19ZM13.879 6.379L7.172 13.086C6.417 13.841 6 14.846 6 15.914V17.5C6 18.053 6.448 18.5 7 18.5H8.586C9.654 18.5 10.659 18.084 11.414 17.328L18.121 10.621C19.291 9.451 19.291 7.549 18.121 6.379C16.987 5.246 15.012 5.246 13.879 6.379ZM10 15.914C9.627 16.286 9.112 16.5 8.586 16.5H8V15.914C8 15.38 8.208 14.878 8.586 14.5L12.836 10.25L14.25 11.664L10 15.914ZM16.707 9.207L15.664 10.25L14.25 8.836L15.293 7.793C15.67 7.414 16.329 7.414 16.707 7.793C17.097 8.183 17.097 8.817 16.707 9.207Z" fill="black"/>
</g>
<defs>
<clipPath id="clip0_47_1357">
<rect width="24" height="24" fill="white"/>
</clipPath>
</defs>
</svg>
