<svg width="20" height="20" viewBox="0 0 20 20" fill="none" xmlns="http://www.w3.org/2000/svg">
<g clip-path="url(#clip0_822_550)">
<path d="M19.4267 8.34334C19.185 8.07084 18.9483 7.8125 18.7842 7.64834L16.4275 5.25C16.2707 5.10266 16.0629 5.0217 15.8477 5.02407C15.6326 5.02643 15.4267 5.11194 15.2731 5.2627C15.1195 5.41345 15.0303 5.61776 15.0239 5.83286C15.0176 6.04795 15.0947 6.25715 15.2392 6.41667L17.6008 8.82084C17.6908 8.91084 17.8042 9.03334 17.925 9.16584H2.12917C2.25083 9.0325 2.36583 8.90917 2.4625 8.81584L4.81583 6.41667C4.96026 6.25715 5.03739 6.04795 5.03106 5.83286C5.02474 5.61776 4.93545 5.41345 4.7819 5.2627C4.62835 5.11194 4.42243 5.02643 4.20725 5.02407C3.99208 5.0217 3.78433 5.10266 3.6275 5.25L1.275 7.64334C1.10833 7.81 0.869167 8.07084 0.6275 8.34334C0.223602 8.79876 0.000390638 9.38628 0 9.995L0 10.005C0.00118675 10.614 0.224612 11.2016 0.628333 11.6575C0.869167 11.9292 1.10583 12.1875 1.26917 12.3517L3.6275 14.75C3.78433 14.8973 3.99208 14.9783 4.20725 14.9759C4.42243 14.9736 4.62835 14.8881 4.7819 14.7373C4.93545 14.5866 5.02474 14.3822 5.03106 14.1671C5.03739 13.9521 4.96026 13.7429 4.81583 13.5833L2.45333 11.1783C2.36333 11.0883 2.25 10.9658 2.12917 10.8333H17.925C17.8042 10.9667 17.6892 11.09 17.5917 11.1833L15.2392 13.5833C15.1573 13.6602 15.0919 13.7528 15.0468 13.8556C15.0016 13.9584 14.9777 14.0693 14.9765 14.1815C14.9752 14.2938 14.9967 14.4051 15.0396 14.5089C15.0824 14.6127 15.1458 14.7067 15.2259 14.7853C15.3061 14.864 15.4012 14.9256 15.5058 14.9666C15.6103 15.0075 15.722 15.027 15.8343 15.0237C15.9465 15.0204 16.0569 14.9944 16.1588 14.9474C16.2608 14.9004 16.3521 14.8332 16.4275 14.75L18.7792 12.3558C18.9458 12.1892 19.1842 11.9283 19.4267 11.6558C19.8309 11.1988 20.054 10.6097 20.054 9.99959C20.054 9.38945 19.8309 8.80037 19.4267 8.34334Z" fill="#353535"/>
</g>
<defs>
<clipPath id="clip0_822_550">
<rect width="20" height="20" fill="white"/>
</clipPath>
</defs>
</svg>
