<svg width="21" height="20" viewBox="0 0 21 20" fill="none" xmlns="http://www.w3.org/2000/svg">
<g clip-path="url(#clip0_92_734)">
<path d="M20.0775 9.18077C19.6717 8.63577 19.0492 8.32244 18.3692 8.32244H18V6.66661C18 4.36911 16.1308 2.49994 13.8333 2.49994H9.62C9.49167 2.49994 9.36167 2.46911 9.2475 2.41244L6.61833 1.09744C6.27333 0.92494 5.88667 0.834107 5.5 0.834107H3.83333C1.995 0.833273 0.5 2.32827 0.5 4.16661V14.9999C0.5 17.2974 2.36917 19.1666 4.66667 19.1666H15.1317C16.9867 19.1666 18.59 17.9733 19.1333 16.1608L20.41 11.0641C20.605 10.4124 20.4833 9.72661 20.0775 9.18077ZM2.16667 14.9999V4.16661C2.16667 3.24744 2.91417 2.49994 3.83333 2.49994H5.5C5.62833 2.49994 5.75833 2.53077 5.8725 2.58744L8.50167 3.90244C8.84667 4.07494 9.23333 4.16577 9.62 4.16577H13.8333C15.2117 4.16577 16.3333 5.28744 16.3333 6.66577V8.32161H7.67917C6.2625 8.32161 4.9975 9.22077 4.52167 10.5883L2.69667 16.5366C2.365 16.1124 2.16667 15.5791 2.16667 14.9999ZM18.8033 10.6224L17.5267 15.7183C17.2067 16.7841 16.2442 17.4999 15.1317 17.4999H4.66667C4.49333 17.4999 4.32417 17.4824 4.16083 17.4483L6.10583 11.1074C6.33833 10.4383 6.97167 9.98911 7.68 9.98911H18.37C18.5717 9.98911 18.6892 10.1058 18.7408 10.1758C18.7925 10.2458 18.8708 10.3916 18.8033 10.6224Z" fill="#353535"/>
</g>
<defs>
<clipPath id="clip0_92_734">
<rect width="20" height="20" fill="white" transform="translate(0.5)"/>
</clipPath>
</defs>
</svg>
