<svg width="21" height="20" viewBox="0 0 21 20" fill="none" xmlns="http://www.w3.org/2000/svg">
<g clip-path="url(#clip0_548_497)">
<path d="M10.5 14.1667C8.2 14.1667 6.33333 12.3 6.33333 10C6.33333 7.7 8.2 5.83333 10.5 5.83333C12.8 5.83333 14.6667 7.7 14.6667 10C14.6667 12.3 12.8 14.1667 10.5 14.1667ZM10.5 7.5C9.125 7.5 8 8.625 8 10C8 11.375 9.125 12.5 10.5 12.5C11.875 12.5 13 11.375 13 10C13 8.625 11.875 7.5 10.5 7.5ZM11.3333 3.33333V0.833333C11.3333 0.375 10.9583 0 10.5 0C10.0417 0 9.66667 0.375 9.66667 0.833333V3.33333C9.66667 3.79167 10.0417 4.16667 10.5 4.16667C10.9583 4.16667 11.3333 3.79167 11.3333 3.33333ZM11.3333 19.1667V16.6667C11.3333 16.2083 10.9583 15.8333 10.5 15.8333C10.0417 15.8333 9.66667 16.2083 9.66667 16.6667V19.1667C9.66667 19.625 10.0417 20 10.5 20C10.9583 20 11.3333 19.625 11.3333 19.1667ZM4.66667 10C4.66667 9.54167 4.29167 9.16667 3.83333 9.16667H1.33333C0.875 9.16667 0.5 9.54167 0.5 10C0.5 10.4583 0.875 10.8333 1.33333 10.8333H3.83333C4.29167 10.8333 4.66667 10.4583 4.66667 10ZM20.5 10C20.5 9.54167 20.125 9.16667 19.6667 9.16667H17.1667C16.7083 9.16667 16.3333 9.54167 16.3333 10C16.3333 10.4583 16.7083 10.8333 17.1667 10.8333H19.6667C20.125 10.8333 20.5 10.4583 20.5 10ZM6.09167 5.59167C6.41667 5.26667 6.41667 4.74167 6.09167 4.41667L4.425 2.75C4.1 2.425 3.575 2.425 3.25 2.75C2.925 3.075 2.925 3.6 3.25 3.925L4.91667 5.59167C5.08333 5.75833 5.29167 5.83333 5.50833 5.83333C5.725 5.83333 5.93333 5.75 6.1 5.59167H6.09167ZM17.7583 17.2583C18.0833 16.9333 18.0833 16.4083 17.7583 16.0833L16.0917 14.4167C15.7667 14.0917 15.2417 14.0917 14.9167 14.4167C14.5917 14.7417 14.5917 15.2667 14.9167 15.5917L16.5833 17.2583C16.75 17.425 16.9583 17.5 17.175 17.5C17.3917 17.5 17.6 17.4167 17.7667 17.2583H17.7583ZM4.425 17.2583L6.09167 15.5917C6.41667 15.2667 6.41667 14.7417 6.09167 14.4167C5.76667 14.0917 5.24167 14.0917 4.91667 14.4167L3.25 16.0833C2.925 16.4083 2.925 16.9333 3.25 17.2583C3.41667 17.425 3.625 17.5 3.84167 17.5C4.05833 17.5 4.26667 17.4167 4.43333 17.2583H4.425ZM16.0917 5.59167L17.7583 3.925C18.0833 3.6 18.0833 3.075 17.7583 2.75C17.4333 2.425 16.9083 2.425 16.5833 2.75L14.9167 4.41667C14.5917 4.74167 14.5917 5.26667 14.9167 5.59167C15.0833 5.75833 15.2917 5.83333 15.5083 5.83333C15.725 5.83333 15.9333 5.75 16.1 5.59167H16.0917Z" fill="#353535"/>
</g>
<defs>
<clipPath id="clip0_548_497">
<rect width="20" height="20" fill="white" transform="translate(0.5)"/>
</clipPath>
</defs>
</svg>
