<svg width="20" height="20" viewBox="0 0 20 20" fill="none" xmlns="http://www.w3.org/2000/svg">
<g clip-path="url(#clip0_431_530)">
<path d="M19.1667 2.50003H10.8334C10.6123 2.50003 10.4004 2.58782 10.2441 2.74411C10.0878 2.90039 10 3.11235 10 3.33336V6.05836L8.00002 2.59169C7.85407 2.33717 7.64352 2.12569 7.38965 1.97861C7.13578 1.83154 6.84758 1.75409 6.55418 1.75409C6.26079 1.75409 5.97259 1.83154 5.71872 1.97861C5.46485 2.12569 5.2543 2.33717 5.10835 2.59169L0.10835 11.25C0.0352093 11.3767 -0.0032959 11.5204 -0.0032959 11.6667C-0.0032959 11.813 0.0352093 11.9567 0.10835 12.0834C0.18177 12.2105 0.28749 12.316 0.414805 12.3892C0.54212 12.4624 0.686508 12.5006 0.83335 12.5H4.40835C4.24655 13.0407 4.16512 13.6023 4.16668 14.1667C4.16668 15.7138 4.78126 17.1975 5.87523 18.2915C6.96919 19.3854 8.45292 20 10 20C11.5471 20 13.0308 19.3854 14.1248 18.2915C15.2188 17.1975 15.8334 15.7138 15.8334 14.1667C15.8349 13.6023 15.7535 13.0407 15.5917 12.5H19.1667C19.3877 12.5 19.5997 12.4122 19.7559 12.2559C19.9122 12.0997 20 11.8877 20 11.6667V3.33336C20 3.11235 19.9122 2.90039 19.7559 2.74411C19.5997 2.58782 19.3877 2.50003 19.1667 2.50003ZM2.27502 10.8334L6.55002 3.42503L9.40835 8.33336C8.57496 8.42611 7.77136 8.69744 7.05232 9.12886C6.33328 9.56029 5.7157 10.1417 5.24168 10.8334H2.27502ZM10 18.3334C9.17593 18.3334 8.37035 18.089 7.68514 17.6312C6.99994 17.1733 6.46588 16.5226 6.15052 15.7612C5.83515 14.9999 5.75264 14.1621 5.91341 13.3538C6.07418 12.5456 6.47102 11.8031 7.05374 11.2204C7.63646 10.6377 8.37889 10.2409 9.18714 10.0801C9.9954 9.91932 10.8332 10.0018 11.5945 10.3172C12.3559 10.6326 13.0066 11.1666 13.4645 11.8518C13.9223 12.537 14.1667 13.3426 14.1667 14.1667C14.1667 15.2718 13.7277 16.3316 12.9463 17.113C12.1649 17.8944 11.1051 18.3334 10 18.3334ZM18.3334 10.8334H14.7834C14.0266 9.7529 12.9291 8.95767 11.6667 8.57503V4.16669H18.3334V10.8334Z" fill="#353535"/>
</g>
<defs>
<clipPath id="clip0_431_530">
<rect width="20" height="20" fill="white"/>
</clipPath>
</defs>
</svg>
