<svg width="16" height="16" viewBox="0 0 16 16" fill="none" xmlns="http://www.w3.org/2000/svg">
<g clip-path="url(#clip0_96_995)">
<path d="M14.8793 2.95401L5.66663 12.166C5.60469 12.2282 5.53108 12.2775 5.45002 12.3112C5.36897 12.3449 5.28206 12.3622 5.19429 12.3622C5.10652 12.3622 5.01962 12.3449 4.93856 12.3112C4.85751 12.2775 4.7839 12.2282 4.72196 12.166L1.15929 8.60001C1.09735 8.53782 1.02374 8.48848 0.942688 8.45481C0.861633 8.42114 0.774728 8.40381 0.686959 8.40381C0.59919 8.40381 0.512284 8.42114 0.431229 8.45481C0.350174 8.48848 0.276565 8.53782 0.214625 8.60001C0.152441 8.66194 0.103099 8.73555 0.0694315 8.81661C0.0357637 8.89767 0.0184326 8.98457 0.0184326 9.07234C0.0184326 9.16011 0.0357637 9.24701 0.0694315 9.32807C0.103099 9.40912 0.152441 9.48273 0.214625 9.54467L3.77863 13.108C4.15459 13.4833 4.66409 13.694 5.19529 13.694C5.72649 13.694 6.23599 13.4833 6.61196 13.108L15.824 3.89801C15.886 3.83608 15.9353 3.76251 15.9689 3.68152C16.0025 3.60052 16.0198 3.5137 16.0198 3.42601C16.0198 3.33832 16.0025 3.25149 15.9689 3.17049C15.9353 3.0895 15.886 3.01593 15.824 2.95401C15.762 2.89182 15.6884 2.84248 15.6074 2.80881C15.5263 2.77514 15.4394 2.75781 15.3516 2.75781C15.2639 2.75781 15.177 2.77514 15.0959 2.80881C15.0148 2.84248 14.9412 2.89182 14.8793 2.95401Z" fill="#353535"/>
</g>
<defs>
<clipPath id="clip0_96_995">
<rect width="16" height="16" fill="white"/>
</clipPath>
</defs>
</svg>
