<svg width="19" height="19" viewBox="0 0 19 19" fill="none" xmlns="http://www.w3.org/2000/svg">
<rect x="0.5" y="0.5" width="18" height="18" rx="9" fill="#353535"/>
<rect x="0.5" y="0.5" width="18" height="18" rx="9" stroke="white"/>
<path d="M13.4496 7.11165C13.3393 7.0355 13.1991 7.01594 13.0743 7.06088C13.0331 7.07545 12.2891 7.34384 11.7648 8.01295C11.3366 7.25063 10.8148 6.62313 9.77824 6.05181C9.65382 5.98273 9.50152 5.98273 9.3771 6.05181C8.34306 6.6198 7.83207 7.23107 7.39349 8.0117C6.86877 7.33926 6.11893 7.07461 6.07732 7.06047C5.95248 7.01761 5.8135 7.03633 5.70448 7.11248C5.0412 7.57395 5 10.1397 5 10.1651C5 12.3501 5.49809 13.1191 5.55468 13.1994C5.60337 13.2685 5.67202 13.3209 5.7515 13.35C5.82349 13.3767 7.5437 14 9.57725 14C11.6108 14 13.3306 13.3767 13.4026 13.35C13.4837 13.3205 13.5532 13.266 13.6023 13.1952C13.6589 13.1128 14.1541 12.3301 14.1541 10.1651C14.1541 10.1393 14.1125 7.57354 13.4496 7.11248V7.11165Z" fill="#F5C000"/>
</svg>
