<svg width="16" height="17" viewBox="0 0 16 17" fill="none" xmlns="http://www.w3.org/2000/svg">
<g clip-path="url(#clip0_100_604)">
<path d="M12.542 7.16667C12.748 7.16667 12.9427 7.07133 13.0687 6.90867C13.1947 6.746 13.2387 6.534 13.188 6.33467C12.9807 5.52333 12.558 4.782 11.966 4.19L9.64267 1.86667C8.76133 0.985333 7.58933 0.5 6.34267 0.5H3.33267C1.49533 0.5 0 1.99533 0 3.83333V13.1667C0 15.0047 1.49533 16.5 3.33333 16.5H5.33333C5.70133 16.5 6 16.2013 6 15.8333C6 15.4653 5.70133 15.1667 5.33333 15.1667H3.33333C2.23067 15.1667 1.33333 14.2693 1.33333 13.1667V3.83333C1.33333 2.73067 2.23067 1.83333 3.33333 1.83333H6.34333C6.452 1.83333 6.56 1.83867 6.66667 1.84867V5.16667C6.66667 6.26933 7.564 7.16667 8.66667 7.16667H12.542ZM8 5.16667V2.27267C8.25267 2.418 8.488 2.598 8.7 2.81L11.0233 5.13333C11.2327 5.34267 11.412 5.57867 11.5587 5.83333H8.66667C8.29933 5.83333 8 5.534 8 5.16667ZM15.4147 8.41933C14.6587 7.66333 13.3413 7.66333 12.586 8.41933L8.11467 12.8907C7.61133 13.394 7.33333 14.064 7.33333 14.7767V15.834C7.33333 16.202 7.632 16.5007 8 16.5007H9.05733C9.77 16.5007 10.4393 16.2227 10.9427 15.7193L15.414 11.248C15.792 10.87 16 10.368 16 9.83333C16 9.29867 15.792 8.79667 15.4147 8.41933ZM14.4713 10.3047L9.99933 14.776C9.748 15.028 9.41333 15.1667 9.05667 15.1667H8.666V14.776C8.666 14.42 8.80467 14.0853 9.05667 13.8333L13.5287 9.362C13.78 9.11 14.2193 9.11 14.4713 9.362C14.5973 9.48733 14.6667 9.65467 14.6667 9.83333C14.6667 10.012 14.5973 10.1787 14.4713 10.3047Z" fill="#353535"/>
</g>
<defs>
<clipPath id="clip0_100_604">
<rect width="16" height="16" fill="white" transform="translate(0 0.5)"/>
</clipPath>
</defs>
</svg>
