<svg width="20" height="20" viewBox="0 0 20 20" fill="none" xmlns="http://www.w3.org/2000/svg">
<g clip-path="url(#clip0_96_2122)">
<path d="M5 7.5C2.14917 7.5 0 8.75417 0 10.4167V17.0833C0 18.7458 2.14917 20 5 20C7.85083 20 10 18.7458 10 17.0833V10.4167C10 8.75417 7.85083 7.5 5 7.5ZM8.33333 13.75C8.33333 14.1908 7.0675 15 5 15C2.9325 15 1.66667 14.1908 1.66667 13.75V12.6267C2.53833 13.0708 3.69583 13.3333 5 13.3333C6.30417 13.3333 7.46167 13.0708 8.33333 12.6267V13.75ZM5 9.16667C7.0675 9.16667 8.33333 9.97583 8.33333 10.4167C8.33333 10.8575 7.0675 11.6667 5 11.6667C2.9325 11.6667 1.66667 10.8575 1.66667 10.4167C1.66667 9.97583 2.9325 9.16667 5 9.16667ZM5 18.3333C2.9325 18.3333 1.66667 17.5242 1.66667 17.0833V15.96C2.53833 16.4042 3.69583 16.6667 5 16.6667C6.30417 16.6667 7.46167 16.4042 8.33333 15.96V17.0833C8.33333 17.5242 7.0675 18.3333 5 18.3333ZM20 4.16667V15.8333C20 18.1308 18.1308 20 15.8333 20H11.6667C11.2058 20 10.8333 19.6267 10.8333 19.1667C10.8333 18.7067 11.2058 18.3333 11.6667 18.3333H15.8333C17.2117 18.3333 18.3333 17.2117 18.3333 15.8333V4.16667C18.3333 2.78833 17.2117 1.66667 15.8333 1.66667H7.5C6.12167 1.66667 5 2.78833 5 4.16667V5C5 5.46 4.6275 5.83333 4.16667 5.83333C3.70583 5.83333 3.33333 5.46 3.33333 5V4.16667C3.33333 1.86917 5.2025 0 7.5 0H15.8333C18.1308 0 20 1.86917 20 4.16667ZM10.8333 8.33333C10.3725 8.33333 10 7.96 10 7.5C10 7.04 10.3725 6.66667 10.8333 6.66667H15V5H8.33333V5.41667C8.33333 5.87667 7.96083 6.25 7.5 6.25C7.03917 6.25 6.66667 5.87667 6.66667 5.41667V5C6.66667 4.08083 7.41417 3.33333 8.33333 3.33333H15C15.9192 3.33333 16.6667 4.08083 16.6667 5V6.66667C16.6667 7.58583 15.9192 8.33333 15 8.33333H10.8333ZM11.6667 15C11.6667 14.54 12.0392 14.1667 12.5 14.1667H15.8333C16.2942 14.1667 16.6667 14.54 16.6667 15C16.6667 15.46 16.2942 15.8333 15.8333 15.8333H12.5C12.0392 15.8333 11.6667 15.46 11.6667 15ZM11.6667 11.6667V10.8333C11.6667 10.3733 12.0392 10 12.5 10C12.9608 10 13.3333 10.3733 13.3333 10.8333V11.6667C13.3333 12.1267 12.9608 12.5 12.5 12.5C12.0392 12.5 11.6667 12.1267 11.6667 11.6667ZM16.6667 11.6667C16.6667 12.1267 16.2942 12.5 15.8333 12.5C15.3725 12.5 15 12.1267 15 11.6667V10.8333C15 10.3733 15.3725 10 15.8333 10C16.2942 10 16.6667 10.3733 16.6667 10.8333V11.6667Z" fill="#353535"/>
</g>
<defs>
<clipPath id="clip0_96_2122">
<rect width="20" height="20" fill="white"/>
</clipPath>
</defs>
</svg>
