<svg width="24" height="24" viewBox="0 0 24 24" fill="none" xmlns="http://www.w3.org/2000/svg">
<g clip-path="url(#clip0_47_1387)">
<path d="M22.535 8.46C22.0716 7.99502 21.5205 7.62656 20.9137 7.37596C20.3069 7.12535 19.6565 6.99756 19 7H2.8L7.1 2.7C7.28724 2.51196 7.39212 2.25724 7.39155 1.99188C7.39099 1.72651 7.28504 1.47224 7.097 1.285C6.90896 1.09775 6.65424 0.992878 6.38888 0.993441C6.12351 0.994004 5.86924 1.09996 5.682 1.288L0.731997 6.237C0.263319 6.70582 3.05176e-05 7.34159 3.05176e-05 8.0045C3.05176e-05 8.66741 0.263319 9.30318 0.731997 9.772L5.682 14.723C5.77484 14.8161 5.88512 14.89 6.00652 14.9405C6.12793 14.991 6.25809 15.0171 6.38958 15.0173C6.52107 15.0174 6.65131 14.9917 6.77286 14.9416C6.89441 14.8914 7.00489 14.8178 7.098 14.725C7.1911 14.6322 7.26501 14.5219 7.3155 14.4005C7.36599 14.2791 7.39207 14.1489 7.39226 14.0174C7.39245 13.8859 7.36673 13.7557 7.31658 13.6341C7.26644 13.5126 7.19284 13.4021 7.1 13.309L2.788 9H19C19.7956 9 20.5587 9.31607 21.1213 9.87868C21.6839 10.4413 22 11.2043 22 12V19C22 19.7956 21.6839 20.5587 21.1213 21.1213C20.5587 21.6839 19.7956 22 19 22H5C4.73478 22 4.48043 22.1054 4.29289 22.2929C4.10535 22.4804 4 22.7348 4 23C4 23.2652 4.10535 23.5196 4.29289 23.7071C4.48043 23.8946 4.73478 24 5 24H19C20.3256 23.9984 21.5964 23.4711 22.5338 22.5338C23.4711 21.5964 23.9984 20.3256 24 19V12C24.0022 11.3423 23.8739 10.6908 23.6224 10.0831C23.3709 9.47546 23.0013 8.92375 22.535 8.46Z" fill="black"/>
</g>
<defs>
<clipPath id="clip0_47_1387">
<rect width="24" height="24" fill="white"/>
</clipPath>
</defs>
</svg>
