<svg width="21" height="20" viewBox="0 0 21 20" fill="none" xmlns="http://www.w3.org/2000/svg">
<g clip-path="url(#clip0_108_704)">
<path d="M20.5 10C20.5 10.4583 20.125 10.8333 19.6667 10.8333H1.33333C0.875 10.8333 0.5 10.4583 0.5 10C0.5 9.54167 0.875 9.16667 1.33333 9.16667H19.6667C20.125 9.16667 20.5 9.54167 20.5 10ZM5.08333 2.625C4.65 2.15 4.54167 1.50833 4.8 0.933333C5.05833 0.358333 5.6 0 6.23333 0H14.775C15.4 0 15.95 0.358333 16.2083 0.933333C16.4667 1.50833 16.3583 2.15 15.9333 2.61667L11.925 6.875C11.575 7.26667 11.0583 7.5 10.5167 7.5C9.975 7.5 9.45833 7.26667 9.09167 6.86667L5.08333 2.625ZM6.46667 1.66667L10.3 5.73333C10.4583 5.90833 10.55 5.89167 10.6833 5.75L14.525 1.66667H6.475H6.46667ZM15.9083 17.375C16.3417 17.85 16.45 18.4917 16.1917 19.0667C15.9333 19.6417 15.3917 20 14.7583 20H6.23333C5.60833 20 5.05833 19.6417 4.8 19.0667C4.54167 18.4917 4.65 17.85 5.075 17.3833L9.08333 13.125C9.78333 12.35 11.1917 12.3333 11.9167 13.1417L15.9083 17.375Z" fill="#353535"/>
</g>
<defs>
<clipPath id="clip0_108_704">
<rect width="20" height="20" fill="white" transform="translate(0.5)"/>
</clipPath>
</defs>
</svg>
