<svg width="20" height="20" viewBox="0 0 20 20" fill="none" xmlns="http://www.w3.org/2000/svg">
<g clip-path="url(#clip0_822_539)">
<path d="M2.40506 5.69666C2.54113 5.6971 2.67523 5.66422 2.79565 5.60088C2.91607 5.53755 3.01916 5.44569 3.0959 5.33333C3.71541 4.4163 4.51112 3.63163 5.43673 3.025C5.52822 2.96481 5.60695 2.88719 5.66844 2.79657C5.72993 2.70595 5.77297 2.60411 5.79511 2.49686C5.81724 2.38961 5.81803 2.27905 5.79743 2.17149C5.77683 2.06393 5.73525 1.96148 5.67506 1.87C5.61487 1.77851 5.53725 1.69977 5.44664 1.63828C5.35602 1.57679 5.25418 1.53375 5.14692 1.51162C5.03967 1.48949 4.92911 1.4887 4.82155 1.5093C4.714 1.52989 4.61155 1.57147 4.52006 1.63166C3.41169 2.35819 2.45878 3.29779 1.71673 4.39583C1.63188 4.52103 1.58271 4.66696 1.57448 4.81798C1.56625 4.969 1.59927 5.11941 1.67001 5.25309C1.74074 5.38677 1.84653 5.49868 1.97602 5.57682C2.10551 5.65496 2.25382 5.69639 2.40506 5.69666Z" fill="#353535"/>
<path d="M1.66659 9.99999C1.66644 9.44911 1.7203 8.89953 1.82742 8.35916C1.85061 8.25119 1.85211 8.13968 1.83183 8.03112C1.81155 7.92257 1.76989 7.81912 1.70928 7.72681C1.64867 7.63449 1.57031 7.55514 1.47877 7.49337C1.38722 7.4316 1.28431 7.38864 1.17602 7.367C1.06773 7.34535 0.956209 7.34544 0.847952 7.36727C0.739695 7.3891 0.636857 7.43223 0.545414 7.49415C0.453972 7.55607 0.375749 7.63555 0.315293 7.72797C0.254837 7.82039 0.213354 7.9239 0.193254 8.03249C-0.065069 9.33313 -0.065069 10.6719 0.193254 11.9725C0.231676 12.1607 0.333951 12.3299 0.48277 12.4514C0.631589 12.5729 0.817812 12.6392 1.00992 12.6392C1.06586 12.6394 1.12169 12.6341 1.17659 12.6233C1.39329 12.5799 1.58387 12.4522 1.70639 12.2682C1.82891 12.0843 1.87335 11.8592 1.82992 11.6425C1.72179 11.1017 1.66709 10.5515 1.66659 9.99999Z" fill="#353535"/>
<path d="M5.44007 16.9767C4.51428 16.3713 3.71825 15.5878 3.0984 14.6717C3.03696 14.581 2.95826 14.5034 2.86682 14.4432C2.77537 14.383 2.67296 14.3414 2.56544 14.3208C2.34829 14.2792 2.12349 14.3255 1.94049 14.4496C1.75749 14.5737 1.63128 14.7654 1.58963 14.9825C1.54799 15.1997 1.59431 15.4245 1.7184 15.6075C2.46197 16.7055 3.41662 17.6446 4.52674 18.37C4.71151 18.4916 4.93699 18.5347 5.1536 18.49C5.3702 18.4453 5.56018 18.3164 5.68174 18.1317C5.8033 17.9469 5.84648 17.7214 5.80178 17.5048C5.75708 17.2882 5.62817 17.0982 5.4434 16.9767H5.44007Z" fill="#353535"/>
<path d="M9.99989 0C9.39305 0.00103377 8.78754 0.0568154 8.19072 0.166667C7.98588 0.203756 7.80234 0.316168 7.67622 0.481783C7.5501 0.647397 7.49053 0.854219 7.50923 1.06155C7.52794 1.26888 7.62356 1.4617 7.77729 1.60206C7.93102 1.74243 8.13172 1.82017 8.33989 1.82C8.39044 1.81963 8.44089 1.81517 8.49072 1.80667C8.9885 1.71441 9.49363 1.66755 9.99989 1.66667V18.3333C9.49373 18.3336 8.9886 18.2878 8.49072 18.1967C8.27325 18.1569 8.04887 18.2051 7.86696 18.3308C7.68505 18.4564 7.5605 18.6492 7.52072 18.8667C7.48094 19.0841 7.52918 19.3085 7.65483 19.4904C7.78048 19.6723 7.97325 19.7969 8.19072 19.8367C9.63294 20.1005 11.1155 20.0442 12.5336 19.6718C13.9516 19.2994 15.2706 18.62 16.3971 17.6817C17.5236 16.7433 18.4302 15.5689 19.0528 14.2415C19.6753 12.9141 19.9987 11.4661 19.9999 10C19.997 7.34872 18.9425 4.80684 17.0678 2.9321C15.193 1.05736 12.6512 0.00286757 9.99989 0Z" fill="#353535"/>
</g>
<defs>
<clipPath id="clip0_822_539">
<rect width="20" height="20" fill="white"/>
</clipPath>
</defs>
</svg>
