<svg width="20" height="20" viewBox="0 0 20 20" fill="none" xmlns="http://www.w3.org/2000/svg">
<g clip-path="url(#clip0_37_514)">
<path d="M16.6253 4.61666L13.7253 1.71666C12.6253 0.616662 11.1587 0.00832857 9.60033 0.00832857H5.83366C3.53366 -4.75867e-06 1.66699 1.86666 1.66699 4.16666V15.8333C1.66699 18.1333 3.53366 20 5.83366 20H14.167C16.467 20 18.3337 18.1333 18.3337 15.8333V8.74166C18.3337 7.18333 17.7253 5.71666 16.6253 4.61666ZM15.4503 5.79166C15.717 6.05833 15.942 6.35 16.1253 6.66666H12.5087C12.0503 6.66666 11.6753 6.29166 11.6753 5.83333V2.21666C11.992 2.4 12.2837 2.625 12.5503 2.89166L15.4503 5.79166ZM16.667 15.8333C16.667 17.2083 15.542 18.3333 14.167 18.3333H5.83366C4.45866 18.3333 3.33366 17.2083 3.33366 15.8333V4.16666C3.33366 2.79166 4.45866 1.66666 5.83366 1.66666H9.59199C9.72533 1.66666 9.86699 1.66666 10.0003 1.68333V5.83333C10.0003 7.20833 11.1253 8.33333 12.5003 8.33333H16.6503C16.667 8.46666 16.667 8.6 16.667 8.74166V15.8333ZM8.33366 15.8333C8.33366 16.2917 7.95866 16.6667 7.50033 16.6667H5.83366C5.37533 16.6667 5.00033 16.2917 5.00033 15.8333V15C5.00033 14.5417 5.37533 14.1667 5.83366 14.1667C6.29199 14.1667 6.66699 14.5417 6.66699 15H7.50033C7.95866 15 8.33366 15.375 8.33366 15.8333ZM15.0003 15V15.8333C15.0003 16.2917 14.6253 16.6667 14.167 16.6667H12.5003C12.042 16.6667 11.667 16.2917 11.667 15.8333C11.667 15.375 12.042 15 12.5003 15H13.3337C13.3337 14.5417 13.7087 14.1667 14.167 14.1667C14.6253 14.1667 15.0003 14.5417 15.0003 15ZM15.0003 10.8333V11.6667C15.0003 12.125 14.6253 12.5 14.167 12.5C13.7087 12.5 13.3337 12.125 13.3337 11.6667H12.5003C12.042 11.6667 11.667 11.2917 11.667 10.8333C11.667 10.375 12.042 10 12.5003 10H14.167C14.6253 10 15.0003 10.375 15.0003 10.8333ZM8.33366 10.8333C8.33366 11.2917 7.95866 11.6667 7.50033 11.6667H6.66699C6.66699 12.125 6.29199 12.5 5.83366 12.5C5.37533 12.5 5.00033 12.125 5.00033 11.6667V10.8333C5.00033 10.375 5.37533 10 5.83366 10H7.50033C7.95866 10 8.33366 10.375 8.33366 10.8333ZM8.33366 7.5C8.33366 7.95833 7.95866 8.33333 7.50033 8.33333H5.83366C5.37533 8.33333 5.00033 7.95833 5.00033 7.5C5.00033 7.04166 5.37533 6.66666 5.83366 6.66666H7.50033C7.95866 6.66666 8.33366 7.04166 8.33366 7.5Z" fill="black"/>
</g>
<defs>
<clipPath id="clip0_37_514">
<rect width="20" height="20" fill="white"/>
</clipPath>
</defs>
</svg>
