<svg width="21" height="20" viewBox="0 0 21 20" fill="none" xmlns="http://www.w3.org/2000/svg">
<g clip-path="url(#clip0_92_737)">
<path d="M16.3333 3.33333H15.91L14.09 0.973333C13.8554 0.671505 13.5553 0.427014 13.2122 0.258378C12.8692 0.0897429 12.4923 0.00138587 12.11 0L8.89 0C8.50775 0.00138587 8.13082 0.0897429 7.78778 0.258378C7.44473 0.427014 7.14456 0.671505 6.91 0.973333L5.09 3.33333H4.66667C3.562 3.33466 2.50296 3.77407 1.72185 4.55518C0.940735 5.3363 0.501323 6.39534 0.5 7.5L0.5 15.8333C0.501323 16.938 0.940735 17.997 1.72185 18.7782C2.50296 19.5593 3.562 19.9987 4.66667 20H16.3333C17.438 19.9987 18.497 19.5593 19.2782 18.7782C20.0593 17.997 20.4987 16.938 20.5 15.8333V7.5C20.4987 6.39534 20.0593 5.3363 19.2782 4.55518C18.497 3.77407 17.438 3.33466 16.3333 3.33333ZM8.23 1.99167C8.30806 1.89088 8.40808 1.80922 8.52244 1.7529C8.63681 1.69658 8.76252 1.66709 8.89 1.66667H12.11C12.2375 1.66721 12.3631 1.69676 12.4775 1.75307C12.5918 1.80938 12.6919 1.89097 12.77 1.99167L13.805 3.33333H7.195L8.23 1.99167ZM18.8333 15.8333C18.8333 16.4964 18.5699 17.1323 18.1011 17.6011C17.6323 18.0699 16.9964 18.3333 16.3333 18.3333H4.66667C4.00363 18.3333 3.36774 18.0699 2.8989 17.6011C2.43006 17.1323 2.16667 16.4964 2.16667 15.8333V7.5C2.16667 6.83696 2.43006 6.20107 2.8989 5.73223C3.36774 5.26339 4.00363 5 4.66667 5H16.3333C16.9964 5 17.6323 5.26339 18.1011 5.73223C18.5699 6.20107 18.8333 6.83696 18.8333 7.5V15.8333Z" fill="#353535"/>
<path d="M10.5 6.66663C9.5111 6.66663 8.5444 6.95987 7.72215 7.50928C6.89991 8.05869 6.25904 8.83958 5.8806 9.75321C5.50217 10.6668 5.40315 11.6722 5.59608 12.6421C5.789 13.612 6.26521 14.5029 6.96447 15.2022C7.66373 15.9014 8.55465 16.3776 9.52455 16.5706C10.4945 16.7635 11.4998 16.6645 12.4134 16.286C13.3271 15.9076 14.1079 15.2667 14.6574 14.4445C15.2068 13.6222 15.5 12.6555 15.5 11.6666C15.4987 10.341 14.9715 9.06995 14.0341 8.13255C13.0967 7.19516 11.8257 6.66795 10.5 6.66663ZM10.5 15C9.84073 15 9.19627 14.8045 8.6481 14.4382C8.09994 14.0719 7.6727 13.5513 7.4204 12.9422C7.16811 12.3332 7.1021 11.6629 7.23072 11.0163C7.35934 10.3697 7.6768 9.77578 8.14298 9.3096C8.60915 8.84343 9.2031 8.52596 9.8497 8.39734C10.4963 8.26872 11.1665 8.33474 11.7756 8.58703C12.3847 8.83932 12.9053 9.26656 13.2716 9.81473C13.6378 10.3629 13.8333 11.0074 13.8333 11.6666C13.8333 12.5507 13.4821 13.3985 12.857 14.0236C12.2319 14.6488 11.3841 15 10.5 15Z" fill="#353535"/>
</g>
<defs>
<clipPath id="clip0_92_737">
<rect width="20" height="20" fill="white" transform="translate(0.5)"/>
</clipPath>
</defs>
</svg>
