<svg width="20" height="20" viewBox="0 0 20 20" fill="none" xmlns="http://www.w3.org/2000/svg">
<path d="M7.16659 8.23334L10.9916 4.40834C11.1477 4.25313 11.3589 4.16602 11.5791 4.16602C11.7992 4.16602 12.0105 4.25313 12.1666 4.40834C12.2447 4.48581 12.3067 4.57798 12.349 4.67953C12.3913 4.78108 12.4131 4.89 12.4131 5.00001C12.4131 5.11002 12.3913 5.21894 12.349 5.32049C12.3067 5.42204 12.2447 5.51421 12.1666 5.59168L8.33325 9.40834C8.25515 9.48581 8.19315 9.57798 8.15084 9.67953C8.10854 9.78108 8.08676 9.89 8.08676 10C8.08676 10.11 8.10854 10.2189 8.15084 10.3205C8.19315 10.422 8.25515 10.5142 8.33325 10.5917L12.1666 14.4083C12.3235 14.5642 12.4121 14.7759 12.4129 14.9971C12.4137 15.2182 12.3266 15.4306 12.1708 15.5875C12.0149 15.7444 11.8032 15.833 11.582 15.8338C11.3609 15.8346 11.1485 15.7475 10.9916 15.5917L7.16659 11.7667C6.69842 11.2979 6.43545 10.6625 6.43545 10C6.43545 9.33751 6.69842 8.70209 7.16659 8.23334Z" fill="#353535"/>
</svg>
