<svg width="24" height="24" viewBox="0 0 24 24" fill="none" xmlns="http://www.w3.org/2000/svg">
<g clip-path="url(#clip0_47_1452)">
<path d="M23.414 10.586L20.171 7.343L18.757 8.757L21 11H13V3L15.243 5.243L16.657 3.829L13.414 0.586C13.0389 0.211058 12.5303 0.000427246 12 0.000427246C11.4697 0.000427246 10.9611 0.211058 10.586 0.586L7.343 3.829L8.757 5.243L11 3V11H3L5.243 8.757L3.829 7.343L0.586 10.586C0.211058 10.9611 0.000427246 11.4697 0.000427246 12C0.000427246 12.5303 0.211058 13.0389 0.586 13.414L3.829 16.657L5.243 15.243L3 13H11V21L8.757 18.758L7.343 20.172L10.586 23.414C10.9611 23.7889 11.4697 23.9996 12 23.9996C12.5303 23.9996 13.0389 23.7889 13.414 23.414L16.657 20.172L15.243 18.758L13 21V13H21L18.757 15.243L20.171 16.657L23.414 13.414C23.7889 13.0389 23.9996 12.5303 23.9996 12C23.9996 11.4697 23.7889 10.9611 23.414 10.586Z" fill="black"/>
</g>
<defs>
<clipPath id="clip0_47_1452">
<rect width="24" height="24" fill="white"/>
</clipPath>
</defs>
</svg>
