<svg width="20" height="20" viewBox="0 0 20 20" fill="none" xmlns="http://www.w3.org/2000/svg">
<g clip-path="url(#clip0_96_2117)">
<path d="M17.0833 6.66667C15.475 6.66667 14.1667 7.975 14.1667 9.58333C14.1667 11.1917 15.475 12.5 17.0833 12.5C18.6917 12.5 20 11.1917 20 9.58333C20 7.975 18.6917 6.66667 17.0833 6.66667ZM17.0833 10.8333C16.3942 10.8333 15.8333 10.2725 15.8333 9.58333C15.8333 8.89417 16.3942 8.33333 17.0833 8.33333C17.7725 8.33333 18.3333 8.89417 18.3333 9.58333C18.3333 10.2725 17.7725 10.8333 17.0833 10.8333ZM17.0833 14.1667C15.475 14.1667 14.1667 15.475 14.1667 17.0833C14.1667 18.6917 15.475 20 17.0833 20C18.6917 20 20 18.6917 20 17.0833C20 15.475 18.6917 14.1667 17.0833 14.1667ZM17.0833 18.3333C16.3942 18.3333 15.8333 17.7725 15.8333 17.0833C15.8333 16.3942 16.3942 15.8333 17.0833 15.8333C17.7725 15.8333 18.3333 16.3942 18.3333 17.0833C18.3333 17.7725 17.7725 18.3333 17.0833 18.3333ZM12.5 7.5C12.5 7.96 12.1275 8.33333 11.6667 8.33333H0.833333C0.3725 8.33333 0 7.96 0 7.5C0 7.04 0.3725 6.66667 0.833333 6.66667H11.6667C12.1275 6.66667 12.5 7.04 12.5 7.5ZM0 10.8333C0 10.3733 0.3725 10 0.833333 10H9.16667C9.6275 10 10 10.3733 10 10.8333C10 11.2933 9.6275 11.6667 9.16667 11.6667H0.833333C0.3725 11.6667 0 11.2933 0 10.8333ZM12.5 15C12.5 15.46 12.1275 15.8333 11.6667 15.8333H0.833333C0.3725 15.8333 0 15.46 0 15C0 14.54 0.3725 14.1667 0.833333 14.1667H11.6667C12.1275 14.1667 12.5 14.54 12.5 15ZM10 18.3333C10 18.7933 9.6275 19.1667 9.16667 19.1667H0.833333C0.3725 19.1667 0 18.7933 0 18.3333C0 17.8733 0.3725 17.5 0.833333 17.5H9.16667C9.6275 17.5 10 17.8733 10 18.3333ZM2.5 5H17.5C18.8783 5 20 3.87833 20 2.5C20 1.12167 18.8783 0 17.5 0H2.5C1.12167 0 0 1.12167 0 2.5C0 3.87833 1.12167 5 2.5 5ZM2.5 1.66667H17.5C17.96 1.66667 18.3333 2.04083 18.3333 2.5C18.3333 2.95917 17.96 3.33333 17.5 3.33333H2.5C2.04 3.33333 1.66667 2.95917 1.66667 2.5C1.66667 2.04083 2.04 1.66667 2.5 1.66667Z" fill="#353535"/>
</g>
<defs>
<clipPath id="clip0_96_2117">
<rect width="20" height="20" fill="white"/>
</clipPath>
</defs>
</svg>
