<svg width="24" height="24" viewBox="0 0 24 24" fill="none" xmlns="http://www.w3.org/2000/svg">
<circle cx="12" cy="12" r="12" fill="white"/>
<path opacity="0.9" d="M10.1737 12.0294C9.84741 11.3819 9.65281 10.6761 9.60113 9.95287C9.54944 9.22965 9.6417 8.50337 9.87256 7.81605L10.6454 9.33745C10.7111 9.4667 10.8254 9.56457 10.9632 9.60953C11.101 9.6545 11.251 9.64287 11.3803 9.57722C11.5095 9.51156 11.6074 9.39726 11.6524 9.25944C11.6973 9.12163 11.6857 8.97159 11.6201 8.84235L10.5945 6.82339C10.4724 6.58349 10.2601 6.40184 10.0043 6.31835C9.74839 6.23487 9.46983 6.25637 9.2298 6.37814L7.21084 7.40375C7.08159 7.4694 6.98372 7.58371 6.93876 7.72153C6.89379 7.85934 6.90542 8.00937 6.97107 8.13862C7.03673 8.26786 7.15104 8.36574 7.28885 8.4107C7.42667 8.45566 7.5767 8.44404 7.70594 8.37839L8.71859 7.86397C8.40235 9.03792 8.41917 10.2767 8.76714 11.4417C9.11512 12.6066 9.78052 13.6516 10.6888 14.4598C11.5971 15.268 12.7125 15.8073 13.91 16.0175C15.1075 16.2276 16.3398 16.1002 17.469 15.6496C17.5401 15.6214 17.6045 15.5788 17.6582 15.5243C17.7118 15.4699 17.7536 15.4049 17.7807 15.3334C17.8078 15.2619 17.8198 15.1856 17.8158 15.1093C17.8118 15.0329 17.792 14.9582 17.7575 14.89C17.6985 14.77 17.5968 14.6764 17.4724 14.6275C17.348 14.5785 17.2098 14.5778 17.0848 14.6254C15.8167 15.1331 14.4045 15.1483 13.1257 14.668C11.8469 14.1876 10.794 13.2465 10.1737 12.0294Z" fill="#353535"/>
</svg>
