<svg width="21" height="20" viewBox="0 0 21 20" fill="none" xmlns="http://www.w3.org/2000/svg">
<path d="M13.3334 8.23334L9.50841 4.40834C9.35228 4.25313 9.14107 4.16602 8.92091 4.16602C8.70076 4.16602 8.48955 4.25313 8.33341 4.40834C8.25531 4.48581 8.19331 4.57798 8.151 4.67953C8.1087 4.78108 8.08691 4.89 8.08691 5.00001C8.08691 5.11002 8.1087 5.21894 8.151 5.32049C8.19331 5.42204 8.25531 5.51421 8.33341 5.59168L12.1667 9.40834C12.2449 9.48581 12.3068 9.57798 12.3492 9.67953C12.3915 9.78108 12.4132 9.89 12.4132 10C12.4132 10.11 12.3915 10.2189 12.3492 10.3205C12.3068 10.422 12.2449 10.5142 12.1667 10.5917L8.33341 14.4083C8.17649 14.5642 8.0879 14.7759 8.08712 14.9971C8.08633 15.2182 8.17343 15.4306 8.32925 15.5875C8.48506 15.7444 8.69683 15.833 8.91797 15.8338C9.1391 15.8346 9.35149 15.7475 9.50841 15.5917L13.3334 11.7667C13.8016 11.2979 14.0645 10.6625 14.0645 10C14.0645 9.33751 13.8016 8.70209 13.3334 8.23334Z" fill="#353535"/>
</svg>
