<svg width="20" height="20" viewBox="0 0 20 20" fill="none" xmlns="http://www.w3.org/2000/svg">
<g clip-path="url(#clip0_548_666)">
<path d="M17.5001 12.5H15.8334C14.4584 12.5 13.3334 13.625 13.3334 15V16.6667C13.3334 18.0417 14.4584 19.1667 15.8334 19.1667H17.5001C18.8751 19.1667 20.0001 18.0417 20.0001 16.6667V15C20.0001 13.625 18.8751 12.5 17.5001 12.5ZM18.3334 16.6667C18.3334 17.125 17.9584 17.5 17.5001 17.5H15.8334C15.3751 17.5 15.0001 17.125 15.0001 16.6667V15C15.0001 14.5417 15.3751 14.1667 15.8334 14.1667H17.5001C17.9584 14.1667 18.3334 14.5417 18.3334 15V16.6667ZM17.5001 0.833347H14.1667C12.7917 0.833347 11.6667 1.95835 11.6667 3.33335V6.66668C11.6667 8.04168 12.7917 9.16668 14.1667 9.16668H17.5001C18.8751 9.16668 20.0001 8.04168 20.0001 6.66668V3.33335C20.0001 1.95835 18.8751 0.833347 17.5001 0.833347ZM18.3334 6.66668C18.3334 7.12501 17.9584 7.50001 17.5001 7.50001H14.1667C13.7084 7.50001 13.3334 7.12501 13.3334 6.66668V3.33335C13.3334 2.87501 13.7084 2.50001 14.1667 2.50001H17.5001C17.9584 2.50001 18.3334 2.87501 18.3334 3.33335V6.66668ZM9.74172 3.56668C10.0751 3.88335 10.0917 4.40835 9.77505 4.74168C9.60839 4.91668 9.39172 5.00001 9.17505 5.00001C8.96672 5.00001 8.75839 4.92501 8.60005 4.76668L5.84172 2.14168V19.1667C5.84172 19.625 5.46672 20 5.00839 20C4.55005 20 4.17505 19.625 4.17505 19.1667V2.14168L1.40839 4.76668C1.07505 5.08335 0.550052 5.07501 0.233385 4.74168C-0.0832814 4.40835 -0.0749481 3.88335 0.266719 3.56668L3.25005 0.71668C4.20839 -0.241653 5.79172 -0.241653 6.76672 0.733347L9.74172 3.56668Z" fill="#353535"/>
</g>
<defs>
<clipPath id="clip0_548_666">
<rect width="20" height="20" fill="white"/>
</clipPath>
</defs>
</svg>
