<svg width="24" height="24" viewBox="0 0 24 24" fill="none" xmlns="http://www.w3.org/2000/svg">
<path d="M18.032 11.326C17.973 11.21 16.576 8.48595 13.784 7.23795C13.028 6.90095 12.141 7.23795 11.803 7.99495C11.465 8.75095 11.803 9.63795 12.56 9.97595C13.668 10.472 14.468 11.376 14.921 12.001C14.469 12.625 13.669 13.528 12.56 14.024C11.804 14.362 11.465 15.25 11.803 16.005C12.052 16.563 12.599 16.893 13.173 16.893C13.377 16.893 13.586 16.851 13.784 16.762C16.576 15.513 17.973 12.79 18.032 12.675C18.246 12.25 18.246 11.749 18.032 11.325V11.326Z" fill="#353535"/>
<path d="M12.082 11.176C12.024 11.088 10.627 8.99703 7.92 7.78703C7.162 7.44603 6.275 7.78703 5.939 8.54403C5.601 9.30003 5.939 10.188 6.696 10.525C7.644 10.949 8.368 11.529 8.853 12.001C8.37 12.471 7.647 13.048 6.696 13.474C5.94 13.812 5.601 14.699 5.939 15.455C6.188 16.013 6.735 16.343 7.309 16.343C7.514 16.343 7.722 16.301 7.92 16.212C10.627 15.002 12.023 12.912 12.082 12.824C12.411 12.324 12.411 11.676 12.082 11.176Z" fill="#353535"/>
</svg>
