<svg width="20" height="20" viewBox="0 0 20 20" fill="none" xmlns="http://www.w3.org/2000/svg">
<g clip-path="url(#clip0_548_567)">
<path d="M16.68 20C16.5514 20.0001 16.4245 19.9704 16.3092 19.9133C16.194 19.8562 16.0935 19.7732 16.0157 19.6708C15.9379 19.5683 15.8849 19.4493 15.8608 19.3229C15.8366 19.1966 15.8421 19.0664 15.8767 18.9425C15.9734 18.5933 16.0825 18.2692 16.1909 17.95C17.2617 15.7133 16.3409 12.3808 15.1442 10.8217C14.1234 9.31321 13.5226 7.56024 13.4034 5.74277C13.2842 3.92531 13.6509 2.10887 14.4659 0.480005C14.5619 0.283705 14.7312 0.132994 14.9373 0.0603396C15.1434 -0.0123144 15.3698 -0.00109564 15.5678 0.091579C15.7657 0.184254 15.9193 0.350966 15.9955 0.5558C16.0716 0.760635 16.0643 0.987195 15.975 1.18667C15.2783 2.56028 14.9638 4.09597 15.0643 5.63289C15.1649 7.1698 15.6769 8.6514 16.5467 9.9225C17.9425 11.7033 19.035 15.85 17.7692 18.4817C17.6709 18.7742 17.5709 19.0717 17.4817 19.3908C17.4328 19.5659 17.328 19.7202 17.1833 19.8302C17.0385 19.9402 16.8618 19.9998 16.68 20ZM10.8467 20C10.7181 20.0001 10.5912 19.9704 10.4759 19.9133C10.3607 19.8562 10.2602 19.7732 10.1824 19.6708C10.1046 19.5683 10.0515 19.4493 10.0274 19.3229C10.0033 19.1966 10.0088 19.0664 10.0434 18.9425C10.14 18.5933 10.2492 18.2692 10.3575 17.95C11.4284 15.7133 10.5075 12.3808 9.31085 10.8217C8.2901 9.31321 7.68927 7.56024 7.57006 5.74277C7.45085 3.92531 7.81756 2.10887 8.63252 0.480005C8.72857 0.283705 8.8979 0.132994 9.104 0.0603396C9.31011 -0.0123144 9.53652 -0.00109564 9.73443 0.091579C9.93235 0.184254 10.0859 0.350966 10.1621 0.5558C10.2383 0.760635 10.231 0.987195 10.1417 1.18667C9.44497 2.56028 9.13043 4.09597 9.231 5.63289C9.33158 7.1698 9.84357 8.6514 10.7134 9.9225C12.1092 11.7033 13.2017 15.85 11.9359 18.4817C11.8375 18.7742 11.7375 19.0717 11.6484 19.3908C11.5995 19.5659 11.4947 19.7202 11.3499 19.8302C11.2052 19.9402 11.0285 19.9998 10.8467 20ZM5.01336 20C4.88473 20.0001 4.75782 19.9704 4.64258 19.9133C4.52733 19.8562 4.42687 19.7732 4.34906 19.6708C4.27125 19.5683 4.21821 19.4493 4.19409 19.3229C4.16997 19.1966 4.17542 19.0664 4.21002 18.9425C4.30669 18.5933 4.41585 18.2692 4.52419 17.95C5.59502 15.7133 4.67419 12.3808 3.47752 10.8217C2.45677 9.31321 1.85594 7.56024 1.73673 5.74277C1.61752 3.92531 1.98422 2.10887 2.79919 0.480005C2.89524 0.283705 3.06456 0.132994 3.27067 0.0603396C3.47678 -0.0123144 3.70318 -0.00109564 3.9011 0.091579C4.09902 0.184254 4.25261 0.350966 4.32878 0.5558C4.40496 0.760635 4.39762 0.987195 4.30836 1.18667C3.61164 2.56028 3.29709 4.09597 3.39767 5.63289C3.49824 7.1698 4.01024 8.6514 4.88002 9.9225C6.27586 11.7033 7.36835 15.85 6.10252 18.4817C6.00419 18.7742 5.90419 19.0717 5.81502 19.3908C5.76612 19.5659 5.66132 19.7202 5.51659 19.8302C5.37186 19.9402 5.19513 19.9998 5.01336 20Z" fill="#353535"/>
</g>
<defs>
<clipPath id="clip0_548_567">
<rect width="20" height="20" fill="white"/>
</clipPath>
</defs>
</svg>
