<svg width="16" height="16" viewBox="0 0 16 16" fill="none" xmlns="http://www.w3.org/2000/svg">
<path d="M9.52576 1.52576V6.47424H14.4742C15.318 6.47424 16 7.15619 16 8C16 8.42083 15.8295 8.8028 15.5533 9.07904C15.277 9.35527 14.8951 9.52576 14.4742 9.52576H9.52576V14.4742C9.52576 14.8951 9.35527 15.277 9.07904 15.5533C8.8028 15.8295 8.42083 16 8 16C7.15619 16 6.47424 15.318 6.47424 14.4742L6.47424 9.52576H1.52576C0.681953 9.52576 0 8.84381 0 8C0 7.15619 0.681953 6.47424 1.52576 6.47424H6.47424L6.47424 1.52576C6.47424 0.681953 7.15619 0 8 0C8.84381 0 9.52576 0.681953 9.52576 1.52576Z" fill="#353535"/>
</svg>
