<svg width="21" height="20" viewBox="0 0 21 20" fill="none" xmlns="http://www.w3.org/2000/svg">
<g clip-path="url(#clip0_108_692)">
<path d="M14.7625 6.7083C14.5236 6.77177 14.3089 6.90467 14.1455 7.09018C13.9821 7.27569 13.8774 7.50549 13.8446 7.75051C13.8117 7.99553 13.8523 8.24478 13.9612 8.46674C14.07 8.6887 14.2422 8.8734 14.456 8.99749C14.6698 9.12158 14.9157 9.17949 15.1624 9.16389C15.4091 9.14829 15.6456 9.05989 15.8421 8.90986C16.0386 8.75983 16.1862 8.55491 16.2662 8.32101C16.3462 8.08711 16.3551 7.83474 16.2917 7.59579C16.2496 7.4371 16.1766 7.28826 16.077 7.15776C15.9773 7.02727 15.853 6.91769 15.711 6.83527C15.5689 6.75286 15.4121 6.69922 15.2494 6.67744C15.0866 6.65565 14.9212 6.66614 14.7625 6.7083Z" fill="#353535"/>
<path d="M10.5958 4.20829C10.3569 4.27177 10.1421 4.40467 9.97872 4.59018C9.81533 4.77569 9.71061 5.00549 9.6778 5.25051C9.645 5.49553 9.68558 5.74478 9.79443 5.96674C9.90327 6.1887 10.0755 6.3734 10.2893 6.49749C10.5031 6.62158 10.7489 6.67949 10.9956 6.66389C11.2423 6.64829 11.4789 6.55989 11.6754 6.40986C11.8718 6.25983 12.0194 6.05491 12.0994 5.82101C12.1795 5.58711 12.1883 5.33474 12.1249 5.09579C12.0828 4.9371 12.0099 4.78826 11.9102 4.65776C11.8106 4.52727 11.6862 4.41769 11.5442 4.33527C11.4022 4.25286 11.2454 4.19922 11.0826 4.17744C10.9199 4.15565 10.7545 4.16614 10.5958 4.20829Z" fill="#353535"/>
<path d="M6.42927 6.7083C6.19035 6.77177 5.97561 6.90467 5.81222 7.09018C5.64882 7.27569 5.5441 7.50549 5.5113 7.75051C5.4785 7.99553 5.51908 8.24478 5.62792 8.46674C5.73677 8.6887 5.90898 8.8734 6.12279 8.99749C6.3366 9.12158 6.5824 9.17949 6.82912 9.16389C7.07583 9.14829 7.31239 9.05989 7.50886 8.90986C7.70534 8.75983 7.85292 8.55491 7.93294 8.32101C8.01297 8.08711 8.02184 7.83474 7.95844 7.59579C7.91633 7.4371 7.84337 7.28826 7.74372 7.15776C7.64408 7.02727 7.5197 6.91769 7.3777 6.83527C7.2357 6.75286 7.07885 6.69922 6.91612 6.67744C6.75338 6.65565 6.58795 6.66614 6.42927 6.7083Z" fill="#353535"/>
<path d="M6.42927 11.7083C6.19035 11.7718 5.97561 11.9047 5.81222 12.0902C5.64882 12.2757 5.5441 12.5055 5.5113 12.7505C5.4785 12.9955 5.51908 13.2448 5.62792 13.4667C5.73677 13.6887 5.90898 13.8734 6.12279 13.9975C6.3366 14.1216 6.5824 14.1795 6.82912 14.1639C7.07583 14.1483 7.31239 14.0599 7.50886 13.9099C7.70534 13.7598 7.85292 13.5549 7.93294 13.321C8.01297 13.0871 8.02184 12.8347 7.95844 12.5958C7.91633 12.4371 7.84337 12.2883 7.74372 12.1578C7.64408 12.0273 7.5197 11.9177 7.3777 11.8353C7.2357 11.7529 7.07885 11.6992 6.91612 11.6774C6.75338 11.6556 6.58795 11.6661 6.42927 11.7083Z" fill="#353535"/>
<path d="M10.9166 0.00579584C9.57491 -0.0408556 8.23758 0.183121 6.98432 0.664373C5.73105 1.14562 4.58752 1.8743 3.6219 2.80695C2.65627 3.7396 1.88832 4.85714 1.36384 6.09293C0.83935 7.32873 0.569064 8.65748 0.569092 9.99996C0.572179 12.6512 1.62674 15.1929 3.50143 17.0676C5.37613 18.9423 7.91787 19.9969 10.5691 20C10.8508 20 11.1274 19.9816 11.4024 19.9583C11.6111 19.9407 11.8055 19.8452 11.9469 19.6908C12.0884 19.5364 12.1665 19.3344 12.1658 19.125L12.1391 16.135C12.1323 15.5441 12.3018 14.9646 12.626 14.4706C12.9501 13.9765 13.4141 13.5902 13.9587 13.3611C14.5034 13.132 15.104 13.0704 15.6838 13.1842C16.2637 13.298 16.7964 13.582 17.2141 14L17.2974 14.0833C17.4866 14.2741 17.721 14.4139 17.9787 14.4899C18.2364 14.5658 18.5092 14.5753 18.7716 14.5175C19.0298 14.4633 19.2701 14.3451 19.4707 14.1737C19.6712 14.0023 19.8254 13.7832 19.9191 13.5366C20.3792 12.3285 20.5991 11.0423 20.5666 9.74996C20.4728 7.21164 19.4288 4.8012 17.6414 2.99641C15.8541 1.19162 13.4539 0.124223 10.9166 0.00579584ZM18.4016 12.8391L18.3899 12.8275C17.7385 12.1772 16.9084 11.7353 16.0052 11.5582C15.102 11.381 14.1665 11.4765 13.3177 11.8325C12.469 12.1886 11.7453 12.7891 11.2388 13.5576C10.7322 14.3261 10.4658 15.2279 10.4733 16.1483L10.4933 18.3333C8.28312 18.3234 6.16746 17.4358 4.61169 15.866C3.05591 14.2962 2.18748 12.1726 2.19743 9.96246C2.20737 7.75233 3.09488 5.63666 4.66472 4.08089C6.23455 2.52512 8.35812 1.65668 10.5683 1.66663C10.6658 1.66663 10.7641 1.66663 10.8624 1.67163C12.9761 1.77091 14.9753 2.66058 16.464 4.16435C17.9526 5.66812 18.822 7.67625 18.8999 9.7908C18.9274 10.8271 18.7592 11.8593 18.4041 12.8333L18.4016 12.8391Z" fill="#353535"/>
</g>
<defs>
<clipPath id="clip0_108_692">
<rect width="20" height="20" fill="white" transform="translate(0.5)"/>
</clipPath>
</defs>
</svg>
