<svg width="24" height="24" viewBox="0 0 24 24" fill="none" xmlns="http://www.w3.org/2000/svg">
<g clip-path="url(#clip0_1373_25541)">
<path d="M19.95 5.54L16.46 2.05C15.14 0.73 13.38 0 11.51 0H7C4.24 0 2 2.24 2 5V19C2 21.76 4.24 24 7 24H17C19.76 24 22 21.76 22 19V10.49C22 8.62 21.27 6.86 19.95 5.54ZM18.54 6.95C18.86 7.27 19.13 7.62 19.35 8H15.01C14.46 8 14.01 7.55 14.01 7V2.66C14.39 2.88 14.74 3.15 15.06 3.47L18.55 6.96L18.54 6.95ZM20 19C20 20.65 18.65 22 17 22H7C5.35 22 4 20.65 4 19V5C4 3.35 5.35 2 7 2H11.51C11.67 2 11.84 2 12 2.02V7C12 8.65 13.35 10 15 10H19.98C20 10.16 20 10.32 20 10.49V19ZM7.09 13H6C5.45 13 5 13.45 5 14V18.44C5 18.79 5.28 19.06 5.62 19.06C5.96 19.06 6.24 18.78 6.24 18.44V17.22H7.08C8.26 17.22 9.22 16.27 9.22 15.11C9.22 13.95 8.26 13 7.08 13H7.09ZM7.09 15.97H6.26V14.25H7.1C7.58 14.25 7.99 14.64 7.99 15.11C7.99 15.58 7.58 15.97 7.1 15.97H7.09ZM19.02 13.63C19.02 13.98 18.74 14.25 18.4 14.25H16.71V15.39H17.95C18.3 15.39 18.57 15.67 18.57 16.01C18.57 16.35 18.29 16.63 17.95 16.63H16.71V18.43C16.71 18.78 16.43 19.05 16.09 19.05C15.75 19.05 15.47 18.77 15.47 18.43V13.62C15.47 13.27 15.75 13 16.09 13H18.4C18.75 13 19.02 13.28 19.02 13.62V13.63ZM12.09 13.01H11C10.45 13.01 10 13.46 10 14.01V18.45C10 18.8 10.28 19.01 10.62 19.01C10.96 19.01 12.08 19.01 12.08 19.01C13.26 19.01 14.22 18.06 14.22 16.9V15.12C14.22 13.96 13.26 13.01 12.08 13.01H12.09ZM12.98 16.9C12.98 17.37 12.57 17.76 12.09 17.76H11.26V14.26H12.1C12.58 14.26 12.99 14.65 12.99 15.12V16.9H12.98Z" fill="#353535"/>
</g>
<defs>
<clipPath id="clip0_1373_25541">
<rect width="24" height="24" fill="white"/>
</clipPath>
</defs>
</svg>
