<svg width="20" height="20" viewBox="0 0 20 20" fill="none" xmlns="http://www.w3.org/2000/svg">
<g clip-path="url(#clip0_548_638)">
<path d="M13.3333 1.66659C13.3333 2.12492 12.9583 2.49992 12.5 2.49992H7.5V14.1666C7.5 14.6249 7.125 14.9999 6.66667 14.9999C6.20833 14.9999 3.33333 14.9999 5.41667 14.9999H0L1.14445e-10 4.16659C0.000170743 2.91659 0 2.12492 0 1.66659C0 1.20825 0.375 0.833252 0.833333 0.833252H12.5C12.9583 0.833252 13.3333 1.20825 13.3333 1.66659ZM10.4167 4.16659C9.725 4.16659 9.16667 4.72492 9.16667 5.41659C9.16667 6.10825 9.725 6.66659 10.4167 6.66659C11.1083 6.66659 11.6667 6.10825 11.6667 5.41659C11.6667 4.72492 11.1083 4.16659 10.4167 4.16659ZM10.4167 8.33325C9.725 8.33325 9.16667 8.89159 9.16667 9.58325C9.16667 10.2749 9.725 10.8333 10.4167 10.8333C11.1083 10.8333 11.6667 10.2749 11.6667 9.58325C11.6667 8.89159 11.1083 8.33325 10.4167 8.33325ZM10.4167 12.4999C9.725 12.4999 9.16667 13.0583 9.16667 13.7499C9.16667 14.4416 9.725 14.9999 10.4167 14.9999C11.1083 14.9999 11.6667 14.4416 11.6667 13.7499C11.6667 13.0583 11.1083 12.4999 10.4167 12.4999ZM10.4167 16.6666C9.725 16.6666 9.16667 17.2249 9.16667 17.9166C9.16667 18.6083 9.725 19.1666 10.4167 19.1666C11.1083 19.1666 11.6667 18.6083 11.6667 17.9166C11.6667 17.2249 11.1083 16.6666 10.4167 16.6666ZM14.5833 4.16659C13.8917 4.16659 13.3333 4.72492 13.3333 5.41659C13.3333 6.10825 13.8917 6.66659 14.5833 6.66659C15.275 6.66659 15.8333 6.10825 15.8333 5.41659C15.8333 4.72492 15.275 4.16659 14.5833 4.16659ZM18.75 4.16659C18.0583 4.16659 17.5 4.72492 17.5 5.41659C17.5 6.10825 18.0583 6.66659 18.75 6.66659C19.4417 6.66659 20 6.10825 20 5.41659C20 4.72492 19.4417 4.16659 18.75 4.16659Z" fill="#353535"/>
</g>
<defs>
<clipPath id="clip0_548_638">
<rect width="20" height="20" fill="white"/>
</clipPath>
</defs>
</svg>
