<svg width="24" height="24" viewBox="0 0 24 24" fill="none" xmlns="http://www.w3.org/2000/svg">
<g clip-path="url(#clip0_47_1348)">
<path d="M3.77099 13.38C3.57299 13.619 3.28799 13.743 2.99999 13.743C2.77599 13.743 2.54999 13.668 2.36399 13.514C0.861992 12.274 0.000992078 10.446 0.000992078 8.499C-7.9216e-06 4.916 2.91599 2 6.49999 2H11.5C15.084 2 18 4.916 18 8.5C18 12.084 15.084 15 11.5 15C10.948 15 10.5 14.553 10.5 14C10.5 13.447 10.948 13 11.5 13C13.981 13 16 10.981 16 8.5C16 6.019 13.981 4 11.5 4H6.49999C4.01899 4 1.99999 6.019 1.99999 8.5C1.99999 9.848 2.59699 11.113 3.63699 11.972C4.06299 12.324 4.12299 12.954 3.77099 13.38ZM21.637 10.485C21.211 10.135 20.581 10.195 20.229 10.62C19.877 11.046 19.937 11.677 20.363 12.028C21.403 12.886 22 14.152 22 15.5C22 17.981 19.981 20 17.5 20H12.5C10.019 20 7.99999 17.981 7.99999 15.5C7.99999 13.019 10.019 11 12.5 11C13.052 11 13.5 10.553 13.5 10C13.5 9.447 13.052 9 12.5 9C8.91599 9 5.99999 11.916 5.99999 15.5C5.99999 19.084 8.91599 22 12.5 22H17.5C21.084 22 24 19.084 24 15.5C24 13.554 23.139 11.726 21.637 10.485Z" fill="black"/>
<g clip-path="url(#clip1_47_1348)">
<path d="M-233 22C-233 72.632 -217.986 122.127 -189.856 164.226C-161.727 206.325 -121.745 239.137 -74.9669 258.513C-28.1891 277.889 23.284 282.959 72.9431 273.081C122.602 263.203 168.217 238.822 204.019 203.019C239.822 167.217 264.203 121.602 274.081 71.9431C283.959 22.284 278.889 -29.1891 259.513 -75.9669C240.137 -122.745 207.325 -162.727 165.226 -190.856C123.127 -218.986 73.632 -234 23 -234C-44.8729 -233.927 -109.945 -206.932 -157.938 -158.938C-205.932 -110.945 -232.927 -45.8729 -233 22ZM236.333 22C236.333 64.1934 223.822 105.439 200.38 140.522C176.939 175.604 143.621 202.948 104.639 219.094C65.6576 235.241 22.7634 239.466 -18.6192 231.234C-60.0019 223.003 -98.0142 202.685 -127.849 172.849C-157.685 143.014 -178.003 105.002 -186.234 63.6193C-194.466 22.2367 -190.241 -20.6575 -174.094 -59.6391C-157.948 -98.6207 -130.604 -131.939 -95.5216 -155.38C-60.4391 -178.822 -19.1933 -191.333 23 -191.333C79.5605 -191.271 133.787 -168.775 173.781 -128.781C213.775 -88.7865 236.271 -34.5604 236.333 22Z" fill="black"/>
<path d="M108.333 22C108.349 37.6162 102.642 52.6968 92.2907 64.3894C86.0827 71.3653 80.0454 77.9787 75.7147 82.3093L15.4694 143.6C13.5403 145.731 11.2007 147.449 8.59092 148.653C5.98113 149.857 3.155 150.521 0.282181 150.606C-2.59064 150.69 -5.45092 150.193 -8.12694 149.145C-10.803 148.096 -13.2395 146.518 -15.2904 144.505C-17.3413 142.491 -18.9642 140.084 -20.0617 137.428C-21.1591 134.771 -21.7086 131.921 -21.6769 129.047C-21.6453 126.173 -21.0334 123.335 -19.8777 120.704C-18.7221 118.072 -17.0467 115.701 -14.952 113.733L45.4 52.2933C49.3894 48.2827 54.808 42.3093 60.3334 36.1013C63.771 32.2041 65.6679 27.1861 65.6679 21.9893C65.6679 16.7926 63.771 11.7746 60.3334 7.87734C54.8294 1.69067 49.4107 -4.28265 45.5494 -8.16532L-14.952 -69.7333C-17.0467 -71.7012 -18.7221 -74.0721 -19.8777 -76.7036C-21.0334 -79.3351 -21.6453 -82.1729 -21.6769 -85.0468C-21.7086 -87.9207 -21.1591 -90.7714 -20.0617 -93.4277C-18.9642 -96.0839 -17.3413 -98.4911 -15.2904 -100.505C-13.2395 -102.518 -10.803 -104.096 -8.12694 -105.145C-5.45092 -106.193 -2.59064 -106.69 0.282181 -106.606C3.155 -106.521 5.98113 -105.857 8.59092 -104.653C11.2007 -103.449 13.5403 -101.731 15.4694 -99.6L75.8214 -38.1813C80.088 -33.9147 86.0614 -27.3653 92.2267 -20.4107C102.611 -8.72514 108.343 6.36702 108.333 22Z" fill="black"/>
</g>
</g>
<defs>
<clipPath id="clip0_47_1348">
<rect width="24" height="24" fill="white"/>
</clipPath>
<clipPath id="clip1_47_1348">
<rect width="512" height="512" fill="white" transform="translate(-233 -234)"/>
</clipPath>
</defs>
</svg>
