<svg width="21" height="20" viewBox="0 0 21 20" fill="none" xmlns="http://www.w3.org/2000/svg">
<g clip-path="url(#clip0_96_1988)">
<path d="M20.5 12.9166V13.3333C20.5 13.7916 20.125 14.1666 19.6667 14.1666C19.2083 14.1666 18.8333 13.7916 18.8333 13.3333V12.9166C18.8333 12.2249 18.275 11.6666 17.5833 11.6666H16.3333V18.3333C16.3333 18.7916 15.9583 19.1666 15.5 19.1666C15.0417 19.1666 14.6667 18.7916 14.6667 18.3333V11.6666H13.4167C12.725 11.6666 12.1667 12.2249 12.1667 12.9166V13.3333C12.1667 13.7916 11.7917 14.1666 11.3333 14.1666C10.875 14.1666 10.5 13.7916 10.5 13.3333V12.9166C10.5 11.3083 11.8083 9.99992 13.4167 9.99992H17.5833C19.1917 9.99992 20.5 11.3083 20.5 12.9166ZM11.3333 2.49992C12.7083 2.49992 13.8333 3.62492 13.8333 4.99992V5.83325C13.8333 6.29159 14.2083 6.66659 14.6667 6.66659C15.125 6.66659 15.5 6.29159 15.5 5.83325V4.99992C15.5 2.69992 13.6333 0.833252 11.3333 0.833252H4.66667C2.36667 0.833252 0.5 2.69992 0.5 4.99992V5.83325C0.5 6.29159 0.875 6.66659 1.33333 6.66659C1.79167 6.66659 2.16667 6.29159 2.16667 5.83325V4.99992C2.16667 3.62492 3.29167 2.49992 4.66667 2.49992H7.16667V18.3333C7.16667 18.7916 7.54167 19.1666 8 19.1666C8.45833 19.1666 8.83333 18.7916 8.83333 18.3333V2.49992H11.3333Z" fill="#353535"/>
</g>
<defs>
<clipPath id="clip0_96_1988">
<rect width="20" height="20" fill="white" transform="translate(0.5)"/>
</clipPath>
</defs>
</svg>
