<svg width="24" height="24" viewBox="0 0 24 24" fill="none" xmlns="http://www.w3.org/2000/svg">
<g clip-path="url(#clip0_47_1389)">
<path d="M16.9 14.723C17.0875 14.9105 17.3418 15.0158 17.607 15.0158C17.8722 15.0158 18.1265 14.9105 18.314 14.723L23.263 9.773C23.4952 9.54084 23.6794 9.26522 23.8051 8.96186C23.9308 8.6585 23.9955 8.33336 23.9955 8.005C23.9955 7.67664 23.9308 7.3515 23.8051 7.04814C23.6794 6.74478 23.4952 6.46915 23.263 6.237L18.313 1.288C18.1228 1.11557 17.8736 1.02288 17.617 1.0291C17.3604 1.03533 17.116 1.14 16.9344 1.32145C16.7529 1.5029 16.648 1.74723 16.6416 2.00384C16.6352 2.26046 16.7277 2.50971 16.9 2.7L21.2 7H5C3.67392 7 2.40215 7.52678 1.46447 8.46447C0.526784 9.40215 0 10.6739 0 12L0 19C0.00158786 20.3256 0.528882 21.5964 1.46622 22.5338C2.40356 23.4711 3.67441 23.9984 5 24H19C19.2652 24 19.5196 23.8946 19.7071 23.7071C19.8946 23.5196 20 23.2652 20 23C20 22.7348 19.8946 22.4804 19.7071 22.2929C19.5196 22.1054 19.2652 22 19 22H5C4.20435 22 3.44129 21.6839 2.87868 21.1213C2.31607 20.5587 2 19.7957 2 19V12C2 11.2044 2.31607 10.4413 2.87868 9.87868C3.44129 9.31607 4.20435 9 5 9H21.212L16.9 13.309C16.7125 13.4965 16.6072 13.7508 16.6072 14.016C16.6072 14.2812 16.7125 14.5355 16.9 14.723Z" fill="black"/>
</g>
<defs>
<clipPath id="clip0_47_1389">
<rect width="24" height="24" fill="white"/>
</clipPath>
</defs>
</svg>
