<svg width="24" height="24" viewBox="0 0 24 24" fill="none" xmlns="http://www.w3.org/2000/svg">
<g clip-path="url(#clip0_128_1154)">
<path d="M19 2.99998H12.472C12.318 2.99998 12.162 2.96398 12.025 2.89498L8.869 1.31698C8.454 1.10998 7.991 1.00098 7.528 1.00098H5C2.243 0.999977 0 3.24298 0 5.99998V18C0 20.757 2.243 23 5 23H6C6.552 23 7 22.553 7 22C7 21.447 6.552 21 6 21H5C3.346 21 2 19.654 2 18V8.99998H22V18C22 19.654 20.654 21 19 21H18C17.447 21 17 21.447 17 22C17 22.553 17.447 23 18 23H19C21.757 23 24 20.757 24 18V7.99998C24 5.24298 21.757 2.99998 19 2.99998ZM2 5.99998C2 4.34598 3.346 2.99998 5 2.99998H7.528C7.682 2.99998 7.838 3.03598 7.975 3.10498L11.131 4.68298C11.546 4.88998 12.009 4.99898 12.472 4.99898H19C20.302 4.99898 21.402 5.83798 21.816 6.99898H2V5.99998ZM15.707 19.105C16.098 19.496 16.098 20.128 15.707 20.519L14.094 22.132C13.517 22.709 12.759 22.997 12 22.997C11.241 22.997 10.484 22.709 9.907 22.132L8.293 20.519C7.902 20.128 7.902 19.496 8.293 19.105C8.684 18.714 9.316 18.714 9.707 19.105L11 20.398V13C11 12.447 11.448 12 12 12C12.552 12 13 12.447 13 13V20.398L14.293 19.105C14.684 18.714 15.316 18.714 15.707 19.105Z" fill="#353535"/>
</g>
<defs>
<clipPath id="clip0_128_1154">
<rect width="24" height="24" fill="white"/>
</clipPath>
</defs>
</svg>
