<svg width="24" height="24" viewBox="0 0 24 24" fill="none" xmlns="http://www.w3.org/2000/svg">
<circle cx="12" cy="12" r="12" fill="white"/>
<g clip-path="url(#clip0_96_1010)">
<path d="M17.6987 6.00001L14.5077 6.02101C14.1477 6.02351 13.9647 6.45951 14.2177 6.71251L15.4492 7.94401L12.7467 10.6465C12.5512 10.842 12.5512 11.158 12.7467 11.3535C12.8442 11.451 12.9722 11.5 13.1002 11.5C13.2282 11.5 13.3562 11.451 13.4537 11.3535L16.1562 8.65101L17.3877 9.88251C17.6407 10.1355 18.0767 9.95251 18.0792 9.59251L18.1002 6.40151C18.1017 6.17851 17.9222 5.99851 17.6987 6.00001Z" fill="#353535"/>
<path d="M6.40162 18.1L9.59262 18.079C9.95262 18.0765 10.1356 17.6405 9.88262 17.3875L8.65112 16.156L11.3536 13.4535C11.5491 13.258 11.5491 12.942 11.3536 12.7465C11.2561 12.649 11.1281 12.6 11.0001 12.6C10.8721 12.6 10.7441 12.649 10.6466 12.7465L7.94412 15.449L6.71262 14.2175C6.45962 13.9645 6.02362 14.1475 6.02112 14.5075L6.00012 17.6985C5.99862 17.9215 6.17812 18.1015 6.40162 18.1Z" fill="#353535"/>
</g>
<g clip-path="url(#clip1_96_1010)">
<path d="M18 17.6986L17.979 14.5076C17.9765 14.1476 17.5405 13.9646 17.2875 14.2176L16.056 15.4491L13.3535 12.7466C13.158 12.5511 12.842 12.5511 12.6465 12.7466C12.549 12.8441 12.5 12.9721 12.5 13.1001C12.5 13.2281 12.549 13.3561 12.6465 13.4536L15.349 16.1561L14.1175 17.3876C13.8645 17.6406 14.0475 18.0766 14.4075 18.0791L17.5985 18.1001C17.8215 18.1016 18.0015 17.9221 18 17.6986Z" fill="#353535"/>
<path d="M5.89991 6.4015L5.92091 9.5925C5.92341 9.9525 6.35941 10.1355 6.61241 9.8825L7.84391 8.651L10.5464 11.3535C10.7419 11.549 11.0579 11.549 11.2534 11.3535C11.3509 11.256 11.3999 11.128 11.3999 11C11.3999 10.872 11.3509 10.744 11.2534 10.6465L8.55091 7.944L9.78241 6.7125C10.0354 6.4595 9.85241 6.0235 9.49241 6.021L6.30141 6C6.07841 5.9985 5.89841 6.178 5.89991 6.4015Z" fill="#353535"/>
</g>
<defs>
<clipPath id="clip0_96_1010">
<rect width="12" height="12" fill="white" transform="translate(6 6)"/>
</clipPath>
<clipPath id="clip1_96_1010">
<rect width="12" height="12" fill="white" transform="translate(18 6) rotate(90)"/>
</clipPath>
</defs>
</svg>
