<svg width="21" height="20" viewBox="0 0 21 20" fill="none" xmlns="http://www.w3.org/2000/svg">
<g clip-path="url(#clip0_92_731)">
<path d="M8.00022 4.58333C8.00022 3.89167 8.55855 3.33333 9.25022 3.33333C9.94188 3.33333 10.5002 3.89167 10.5002 4.58333C10.5002 5.275 9.94188 5.83333 9.25022 5.83333C8.55855 5.83333 8.00022 5.275 8.00022 4.58333ZM20.5002 4.16667V9.16667C20.5002 11.4667 18.6335 13.3333 16.3335 13.3333H8.83355C6.53355 13.3333 4.66688 11.4667 4.66688 9.16667V4.16667C4.66688 1.86667 6.53355 0 8.83355 0H16.3335C18.6335 0 20.5002 1.86667 20.5002 4.16667ZM6.33355 9.16667C6.33355 9.80833 6.57521 10.3917 6.97521 10.8417L11.3419 6.475C12.1585 5.65833 13.5835 5.65833 14.4002 6.475L15.2669 7.34167C15.4585 7.53333 15.7835 7.53333 15.9752 7.34167L18.8335 4.48333V4.16667C18.8335 2.79167 17.7085 1.66667 16.3335 1.66667H8.83355C7.45855 1.66667 6.33355 2.79167 6.33355 4.16667V9.16667ZM18.8335 9.16667V6.84167L17.1502 8.525C16.3335 9.34167 14.9085 9.34167 14.0919 8.525L13.2252 7.65833C13.0335 7.46667 12.7169 7.46667 12.5169 7.65833L8.52522 11.65C8.62522 11.6667 8.72521 11.6667 8.83355 11.6667H16.3335C17.7085 11.6667 18.8335 10.5417 18.8335 9.16667ZM15.5752 15.0333C15.1335 14.9083 14.6752 15.175 14.5502 15.6167L14.3085 16.5C14.1335 17.1417 13.7169 17.6833 13.1335 18.0083C12.5502 18.3417 11.8752 18.425 11.2335 18.25L4.00021 16.2667C2.66688 15.9 1.88355 14.525 2.25021 13.1917L3.05021 10.225C3.16688 9.78333 2.90855 9.325 2.46688 9.2C2.02521 9.08333 1.56688 9.34167 1.44188 9.78333L0.650214 12.7417C0.0418807 14.9583 1.35021 17.2583 3.56688 17.8667L10.8002 19.85C11.1669 19.95 11.5419 20 11.9085 20C12.6252 20 13.3252 19.8167 13.9669 19.45C14.9335 18.9 15.6252 18.0083 15.9252 16.9333L16.1669 16.05C16.2919 15.6083 16.0252 15.15 15.5835 15.025L15.5752 15.0333Z" fill="#353535"/>
</g>
<defs>
<clipPath id="clip0_92_731">
<rect width="20" height="20" fill="white" transform="translate(0.5)"/>
</clipPath>
</defs>
</svg>
