<svg width="21" height="20" viewBox="0 0 21 20" fill="none" xmlns="http://www.w3.org/2000/svg">
<path d="M8.73334 12.8333L4.90834 9.00829C4.75313 8.85216 4.66602 8.64095 4.66602 8.42079C4.66602 8.20064 4.75313 7.98943 4.90834 7.83329C4.98581 7.75518 5.07798 7.69319 5.17953 7.65088C5.28108 7.60857 5.39 7.58679 5.50001 7.58679C5.61002 7.58679 5.71894 7.60857 5.82049 7.65088C5.92204 7.69319 6.01421 7.75518 6.09168 7.83329L9.90834 11.6666C9.98581 11.7447 10.078 11.8067 10.1795 11.849C10.2811 11.8913 10.39 11.9131 10.5 11.9131C10.61 11.9131 10.7189 11.8913 10.8205 11.849C10.922 11.8067 11.0142 11.7447 11.0917 11.6666L14.9083 7.83329C15.0642 7.67637 15.2759 7.58778 15.4971 7.58699C15.7182 7.58621 15.9306 7.67331 16.0875 7.82913C16.2444 7.98494 16.333 8.19671 16.3338 8.41784C16.3346 8.63898 16.2475 8.85137 16.0917 9.00829L12.2667 12.8333C11.7979 13.3015 11.1625 13.5644 10.5 13.5644C9.83751 13.5644 9.20209 13.3015 8.73334 12.8333Z" fill="#353535"/>
</svg>
