<svg width="20" height="20" viewBox="0 0 20 20" fill="none" xmlns="http://www.w3.org/2000/svg">
<g clip-path="url(#clip0_548_661)">
<path d="M9.99996 20C7.55163 20 5.24996 19.0458 3.5183 17.315C1.78663 15.5833 0.833297 13.2808 0.833297 10.8333C0.833297 9.68333 1.2108 8.425 1.95413 7.09417C2.1783 6.6925 2.68496 6.54833 3.08746 6.7725C3.48913 6.9975 3.6333 7.50417 3.40913 7.90583C2.8058 8.98667 2.49996 9.97167 2.49996 10.8333C2.49996 12.8358 3.2808 14.72 4.69663 16.1367C6.1133 17.5525 7.99663 18.3333 9.99996 18.3333C11.17 18.3333 12.3366 18.0567 13.375 17.5333C13.7841 17.3242 14.2866 17.4908 14.4941 17.9017C14.7016 18.3125 14.5366 18.8142 14.1258 19.0208C12.8566 19.6617 11.43 20 10.0008 20H9.99996ZM9.99996 2.5C9.6108 2.5 9.23413 2.6375 8.93996 2.8875C8.0558 3.6375 7.20496 4.445 6.47913 5.22167L6.4408 5.2625L15.6125 14.4342C16.3033 13.3617 16.6666 12.1225 16.6666 10.8325C16.6666 8.83667 14.5708 5.86667 11.06 2.8875C10.7658 2.6375 10.3891 2.5 9.99996 2.5ZM0.833297 0C1.04663 0 1.25996 0.0816667 1.42246 0.244167L5.26163 4.08333C6.1483 3.135 7.06913 2.28917 7.86163 1.61667C8.47663 1.09417 9.2383 0.833333 9.99996 0.833333C10.7616 0.833333 11.5233 1.09417 12.1383 1.61667C14.6075 3.71167 18.3333 7.49 18.3333 10.8325C18.3333 12.5158 17.8266 14.1992 16.8125 15.6342L19.7558 18.5775C20.0816 18.9033 20.0816 19.43 19.7558 19.7558C19.5933 19.9183 19.38 20 19.1666 20C18.9533 20 18.74 19.9183 18.5775 19.7558L0.244131 1.4225C-0.0817025 1.09667 -0.0817025 0.57 0.244131 0.244167C0.406631 0.0816667 0.619964 0 0.833297 0Z" fill="#353535"/>
</g>
<defs>
<clipPath id="clip0_548_661">
<rect width="20" height="20" fill="white"/>
</clipPath>
</defs>
</svg>
