<svg width="690" height="600" viewBox="0 0 690 600" fill="none" xmlns="http://www.w3.org/2000/svg">
<path d="M341.076 98.2626L344.554 104.387L348.032 98.2626C380.221 41.5862 437.687 4 503.042 4C603.317 4 685.108 92.468 685.108 202.505C685.108 331.883 600.181 430.224 514.385 496.522C471.556 529.617 428.704 554.572 396.548 571.254C380.475 579.592 367.088 585.857 357.729 590.034C353.05 592.122 349.378 593.687 346.883 594.728C345.933 595.125 345.154 595.445 344.554 595.689C343.954 595.445 343.175 595.125 342.224 594.728C339.729 593.687 336.058 592.122 331.379 590.034C322.02 585.857 308.632 579.592 292.559 571.254C260.404 554.572 217.552 529.617 174.723 496.522C88.9265 430.224 4 331.883 4 202.505C4 92.468 85.7906 4 186.066 4C251.421 4 308.887 41.5862 341.076 98.2626Z" stroke="white" stroke-width="8"/>
</svg>
