<svg width="24" height="24" viewBox="0 0 24 24" fill="none" xmlns="http://www.w3.org/2000/svg">
<circle cx="12" cy="12" r="12" fill="white"/>
<path d="M8.66699 18C8.30033 18 7.98644 17.8694 7.72533 17.6083C7.46421 17.3472 7.33366 17.0333 7.33366 16.6667V8H6.66699V6.66667H10.0003V6H14.0003V6.66667H17.3337V8H16.667V16.6667C16.667 17.0333 16.5364 17.3472 16.2753 17.6083C16.0142 17.8694 15.7003 18 15.3337 18H8.66699ZM15.3337 8H8.66699V16.6667H15.3337V8ZM10.0003 15.3333H11.3337V9.33333H10.0003V15.3333ZM12.667 15.3333H14.0003V9.33333H12.667V15.3333Z" fill="#1D1B20"/>
</svg>
