<svg width="21" height="20" viewBox="0 0 21 20" fill="none" xmlns="http://www.w3.org/2000/svg">
<g clip-path="url(#clip0_108_682)">
<path d="M18 3.33333H15.4166C15.2232 2.39284 14.7115 1.54779 13.9677 0.940598C13.2239 0.333408 12.2935 0.0012121 11.3333 0L9.66662 0C8.70645 0.0012121 7.77606 0.333408 7.03225 0.940598C6.28844 1.54779 5.77671 2.39284 5.58329 3.33333H2.99996C2.77895 3.33333 2.56698 3.42113 2.4107 3.57741C2.25442 3.73369 2.16663 3.94565 2.16663 4.16667C2.16663 4.38768 2.25442 4.59964 2.4107 4.75592C2.56698 4.9122 2.77895 5 2.99996 5H3.83329V15.8333C3.83462 16.938 4.27403 17.997 5.05514 18.7782C5.83626 19.5593 6.8953 19.9987 7.99996 20H13C14.1046 19.9987 15.1637 19.5593 15.9448 18.7782C16.7259 17.997 17.1653 16.938 17.1666 15.8333V5H18C18.221 5 18.4329 4.9122 18.5892 4.75592C18.7455 4.59964 18.8333 4.38768 18.8333 4.16667C18.8333 3.94565 18.7455 3.73369 18.5892 3.57741C18.4329 3.42113 18.221 3.33333 18 3.33333ZM9.66662 1.66667H11.3333C11.8502 1.6673 12.3542 1.82781 12.7763 2.1262C13.1984 2.42459 13.5178 2.84624 13.6908 3.33333H7.30912C7.48211 2.84624 7.80154 2.42459 8.22361 2.1262C8.64569 1.82781 9.14973 1.6673 9.66662 1.66667ZM15.5 15.8333C15.5 16.4964 15.2366 17.1323 14.7677 17.6011C14.2989 18.0699 13.663 18.3333 13 18.3333H7.99996C7.33692 18.3333 6.70103 18.0699 6.23219 17.6011C5.76335 17.1323 5.49996 16.4964 5.49996 15.8333V5H15.5V15.8333Z" fill="#353535"/>
<path d="M8.83333 15C9.05435 15 9.26631 14.9122 9.42259 14.756C9.57887 14.5997 9.66667 14.3877 9.66667 14.1667V9.16671C9.66667 8.94569 9.57887 8.73373 9.42259 8.57745C9.26631 8.42117 9.05435 8.33337 8.83333 8.33337C8.61232 8.33337 8.40036 8.42117 8.24408 8.57745C8.0878 8.73373 8 8.94569 8 9.16671V14.1667C8 14.3877 8.0878 14.5997 8.24408 14.756C8.40036 14.9122 8.61232 15 8.83333 15Z" fill="#353535"/>
<path d="M12.1667 15C12.3877 15 12.5997 14.9122 12.756 14.756C12.9122 14.5997 13 14.3877 13 14.1667V9.16671C13 8.94569 12.9122 8.73373 12.756 8.57745C12.5997 8.42117 12.3877 8.33337 12.1667 8.33337C11.9457 8.33337 11.7337 8.42117 11.5775 8.57745C11.4212 8.73373 11.3334 8.94569 11.3334 9.16671V14.1667C11.3334 14.3877 11.4212 14.5997 11.5775 14.756C11.7337 14.9122 11.9457 15 12.1667 15Z" fill="#353535"/>
</g>
<defs>
<clipPath id="clip0_108_682">
<rect width="20" height="20" fill="white" transform="translate(0.5)"/>
</clipPath>
</defs>
</svg>
