<svg width="20" height="20" viewBox="0 0 20 20" fill="none" xmlns="http://www.w3.org/2000/svg">
<path d="M8.23334 7.16671L4.40834 10.9917C4.25313 11.1478 4.16602 11.3591 4.16602 11.5792C4.16602 11.7994 4.25313 12.0106 4.40834 12.1667C4.48581 12.2448 4.57798 12.3068 4.67953 12.3491C4.78108 12.3914 4.89 12.4132 5.00001 12.4132C5.11002 12.4132 5.21894 12.3914 5.32049 12.3491C5.42204 12.3068 5.51421 12.2448 5.59168 12.1667L9.40834 8.33338C9.48581 8.25527 9.57798 8.19327 9.67953 8.15097C9.78108 8.10866 9.89 8.08688 10 8.08688C10.11 8.08688 10.2189 8.10866 10.3205 8.15097C10.422 8.19327 10.5142 8.25527 10.5917 8.33338L14.4083 12.1667C14.5642 12.3236 14.7759 12.4122 14.9971 12.413C15.2182 12.4138 15.4306 12.3267 15.5875 12.1709C15.7444 12.0151 15.833 11.8033 15.8338 11.5822C15.8346 11.361 15.7475 11.1486 15.5917 10.9917L11.7667 7.16671C11.2979 6.69854 10.6625 6.43557 10 6.43557C9.33751 6.43557 8.70209 6.69854 8.23334 7.16671Z" fill="#353535"/>
</svg>
