<svg width="21" height="20" viewBox="0 0 21 20" fill="none" xmlns="http://www.w3.org/2000/svg">
<g clip-path="url(#clip0_128_2499)">
<path d="M10.5 6.66663C9.84075 6.66663 9.19629 6.86212 8.64812 7.22839C8.09996 7.59467 7.67272 8.11526 7.42042 8.72435C7.16813 9.33344 7.10212 10.0037 7.23074 10.6503C7.35935 11.2969 7.67682 11.8908 8.143 12.357C8.60917 12.8232 9.20312 13.1406 9.84972 13.2692C10.4963 13.3979 11.1665 13.3319 11.7756 13.0796C12.3847 12.8273 12.9053 12.4 13.2716 11.8519C13.6379 11.3037 13.8334 10.6592 13.8334 9.99996C13.8334 9.1159 13.4822 8.26806 12.857 7.64294C12.2319 7.01782 11.3841 6.66663 10.5 6.66663ZM10.5 11.6666C10.1704 11.6666 9.84815 11.5689 9.57407 11.3857C9.29999 11.2026 9.08637 10.9423 8.96022 10.6378C8.83408 10.3332 8.80107 9.99811 8.86538 9.67481C8.92969 9.35151 9.08842 9.05454 9.32151 8.82145C9.5546 8.58836 9.85157 8.42963 10.1749 8.36532C10.4982 8.30101 10.8333 8.33401 11.1378 8.46016C11.4424 8.58631 11.7027 8.79993 11.8858 9.07401C12.0689 9.34809 12.1667 9.67032 12.1667 9.99996C12.1667 10.442 11.9911 10.8659 11.6785 11.1785C11.366 11.491 10.9421 11.6666 10.5 11.6666Z" fill="#A2A2A2"/>
<path d="M18.245 11.5833L17.875 11.37C18.0416 10.4637 18.0416 9.53463 17.875 8.62833L18.245 8.415C18.5295 8.25085 18.7789 8.03226 18.979 7.77172C19.179 7.51118 19.3258 7.21378 19.4109 6.89651C19.496 6.57925 19.5178 6.24832 19.4751 5.92263C19.4323 5.59694 19.3258 5.28286 19.1616 4.99833C18.9975 4.7138 18.7789 4.46439 18.5184 4.26434C18.2578 4.06428 17.9604 3.91751 17.6432 3.83239C17.3259 3.74726 16.995 3.72547 16.6693 3.76824C16.3436 3.81101 16.0295 3.91751 15.745 4.08167L15.3741 4.29583C14.6738 3.69743 13.8689 3.23354 13 2.9275V2.5C13 1.83696 12.7366 1.20107 12.2677 0.732233C11.7989 0.263392 11.163 0 10.5 0C9.83693 0 9.20105 0.263392 8.73221 0.732233C8.26337 1.20107 7.99998 1.83696 7.99998 2.5V2.9275C7.13113 3.23464 6.32651 3.69967 5.62664 4.29917L5.25414 4.08333C4.67951 3.75181 3.99671 3.66214 3.35596 3.83405C2.71521 4.00596 2.169 4.42536 1.83747 5C1.50595 5.57464 1.41628 6.25743 1.58819 6.89818C1.7601 7.53893 2.17951 8.08515 2.75414 8.41667L3.12414 8.63C2.95757 9.5363 2.95757 10.4654 3.12414 11.3717L2.75414 11.585C2.17951 11.9165 1.7601 12.4627 1.58819 13.1035C1.41628 13.7442 1.50595 14.427 1.83747 15.0017C2.169 15.5763 2.71521 15.9957 3.35596 16.1676C3.99671 16.3395 4.67951 16.2499 5.25414 15.9183L5.62498 15.7042C6.32561 16.3027 7.13079 16.7666 7.99998 17.0725V17.5C7.99998 18.163 8.26337 18.7989 8.73221 19.2678C9.20105 19.7366 9.83693 20 10.5 20C11.163 20 11.7989 19.7366 12.2677 19.2678C12.7366 18.7989 13 18.163 13 17.5V17.0725C13.8688 16.7654 14.6734 16.3003 15.3733 15.7008L15.7458 15.9158C16.3204 16.2474 17.0032 16.337 17.644 16.1651C18.2847 15.9932 18.831 15.5738 19.1625 14.9992C19.494 14.4245 19.5837 13.7417 19.4118 13.101C19.2398 12.4602 18.8204 11.914 18.2458 11.5825L18.245 11.5833ZM16.1216 8.43667C16.4038 9.45922 16.4038 10.5391 16.1216 11.5617C16.0724 11.7396 16.0836 11.9289 16.1536 12.0998C16.2236 12.2707 16.3484 12.4135 16.5083 12.5058L17.4116 13.0275C17.6032 13.138 17.7429 13.3201 17.8002 13.5336C17.8575 13.7472 17.8276 13.9747 17.7171 14.1663C17.6066 14.3578 17.4245 14.4975 17.2109 14.5548C16.9974 14.6121 16.7698 14.5822 16.5783 14.4717L15.6733 13.9483C15.5132 13.8556 15.3268 13.8188 15.1435 13.8437C14.9602 13.8686 14.7904 13.9538 14.6608 14.0858C13.9191 14.843 12.9846 15.3833 11.9583 15.6483C11.7792 15.6944 11.6204 15.7987 11.5071 15.9449C11.3938 16.0911 11.3324 16.2709 11.3325 16.4558V17.5C11.3325 17.721 11.2447 17.933 11.0884 18.0893C10.9321 18.2455 10.7202 18.3333 10.4991 18.3333C10.2781 18.3333 10.0662 18.2455 9.90989 18.0893C9.75361 17.933 9.66581 17.721 9.66581 17.5V16.4567C9.6659 16.2717 9.60445 16.092 9.49115 15.9458C9.37784 15.7996 9.21911 15.6952 9.03998 15.6492C8.0136 15.3831 7.07942 14.8416 6.33831 14.0833C6.20875 13.9513 6.03892 13.8661 5.8556 13.8412C5.67229 13.8163 5.4859 13.8531 5.32581 13.9458L4.42247 14.4683C4.32767 14.5239 4.2228 14.5602 4.11391 14.5751C4.00503 14.59 3.89427 14.5832 3.78802 14.5551C3.68177 14.527 3.58213 14.4782 3.49483 14.4114C3.40752 14.3446 3.33429 14.2613 3.27934 14.1661C3.22439 14.0709 3.1888 13.9658 3.17464 13.8568C3.16047 13.7479 3.16801 13.6372 3.1968 13.5311C3.22559 13.425 3.27508 13.3257 3.34242 13.2389C3.40975 13.152 3.4936 13.0793 3.58914 13.025L4.49247 12.5033C4.65243 12.411 4.7772 12.2682 4.84719 12.0973C4.91718 11.9264 4.92842 11.7371 4.87914 11.5592C4.59694 10.5366 4.59694 9.45672 4.87914 8.43417C4.92753 8.25657 4.91575 8.06795 4.84565 7.89774C4.77555 7.72754 4.65107 7.58534 4.49164 7.49333L3.58831 6.97167C3.3968 6.86116 3.25703 6.6791 3.19976 6.46555C3.14248 6.25199 3.17238 6.02442 3.28289 5.83292C3.3934 5.64141 3.57546 5.50164 3.78901 5.44437C4.00257 5.38709 4.23013 5.41699 4.42164 5.5275L5.32664 6.05083C5.48629 6.14376 5.67229 6.18101 5.85541 6.15672C6.03854 6.13244 6.2084 6.048 6.33831 5.91667C7.08005 5.15945 8.0145 4.61918 9.04081 4.35417C9.2205 4.30797 9.37964 4.20313 9.493 4.05625C9.60637 3.90938 9.66748 3.72887 9.66664 3.54333V2.5C9.66664 2.27899 9.75444 2.06702 9.91072 1.91074C10.067 1.75446 10.279 1.66667 10.5 1.66667C10.721 1.66667 10.933 1.75446 11.0892 1.91074C11.2455 2.06702 11.3333 2.27899 11.3333 2.5V3.54333C11.3332 3.7283 11.3947 3.90804 11.508 4.05423C11.6213 4.20043 11.78 4.30478 11.9591 4.35083C12.9858 4.61679 13.9203 5.15824 14.6616 5.91667C14.7912 6.04872 14.961 6.13391 15.1443 6.15881C15.3277 6.1837 15.5141 6.14689 15.6741 6.05417L16.5775 5.53167C16.6723 5.47609 16.7772 5.43981 16.886 5.42492C16.9949 5.41003 17.1057 5.41683 17.2119 5.44492C17.3182 5.47301 17.4178 5.52184 17.5051 5.58859C17.5924 5.65535 17.6657 5.73872 17.7206 5.83389C17.7756 5.92907 17.8111 6.03417 17.8253 6.14316C17.8395 6.25214 17.8319 6.36285 17.8032 6.46891C17.7744 6.57497 17.7249 6.67429 17.6575 6.76114C17.5902 6.848 17.5063 6.92068 17.4108 6.975L16.5075 7.49667C16.3483 7.58892 16.2242 7.73123 16.1544 7.90141C16.0846 8.07159 16.0731 8.26008 16.1216 8.4375V8.43667Z" fill="#A2A2A2"/>
</g>
<defs>
<clipPath id="clip0_128_2499">
<rect width="20" height="20" fill="white" transform="translate(0.5)"/>
</clipPath>
</defs>
</svg>
