<svg width="17" height="20" viewBox="0 0 17 20" fill="none" xmlns="http://www.w3.org/2000/svg">
<path d="M11.8333 13.3334C11.8333 13.5544 11.7455 13.7663 11.5892 13.9226C11.4329 14.0789 11.221 14.1667 11 14.1667H9.33329V15.8334C9.33329 16.0544 9.24549 16.2663 9.08921 16.4226C8.93293 16.5789 8.72097 16.6667 8.49996 16.6667C8.27894 16.6667 8.06698 16.5789 7.9107 16.4226C7.75442 16.2663 7.66663 16.0544 7.66663 15.8334V14.1667H5.99996C5.77895 14.1667 5.56698 14.0789 5.4107 13.9226C5.25442 13.7663 5.16663 13.5544 5.16663 13.3334C5.16663 13.1123 5.25442 12.9004 5.4107 12.7441C5.56698 12.5878 5.77895 12.5 5.99996 12.5H7.66663V10.8334C7.66663 10.6123 7.75442 10.4004 7.9107 10.2441C8.06698 10.0878 8.27894 10 8.49996 10C8.72097 10 8.93293 10.0878 9.08921 10.2441C9.24549 10.4004 9.33329 10.6123 9.33329 10.8334V12.5H11C11.221 12.5 11.4329 12.5878 11.5892 12.7441C11.7455 12.9004 11.8333 13.1123 11.8333 13.3334ZM16.8333 8.73752V15.8334C16.832 16.938 16.3926 17.9971 15.6114 18.7782C14.8303 19.5593 13.7713 19.9987 12.6666 20H4.33329C3.22863 19.9987 2.16959 19.5593 1.38848 18.7782C0.607361 17.9971 0.167949 16.938 0.166626 15.8334V4.16669C0.167949 3.06202 0.607361 2.00298 1.38848 1.22187C2.16959 0.440754 3.22863 0.00134242 4.33329 1.92072e-05H8.09579C8.86214 -0.00195323 9.62128 0.148009 10.3293 0.441235C11.0373 0.734461 11.6802 1.16513 12.2208 1.70835L15.1241 4.61335C15.6677 5.15355 16.0986 5.79623 16.392 6.50416C16.6854 7.21209 16.8354 7.9712 16.8333 8.73752ZM11.0425 2.88669C10.7802 2.63265 10.4857 2.41412 10.1666 2.23669V5.83335C10.1666 6.05437 10.2544 6.26633 10.4107 6.42261C10.567 6.57889 10.7789 6.66668 11 6.66668H14.5966C14.4191 6.34768 14.2003 6.05347 13.9458 5.79168L11.0425 2.88669ZM15.1666 8.73752C15.1666 8.60002 15.14 8.46835 15.1275 8.33335H11C10.3369 8.33335 9.70103 8.06996 9.23219 7.60112C8.76335 7.13228 8.49996 6.49639 8.49996 5.83335V1.70585C8.36496 1.69335 8.23246 1.66669 8.09579 1.66669H4.33329C3.67025 1.66669 3.03437 1.93008 2.56553 2.39892C2.09668 2.86776 1.83329 3.50364 1.83329 4.16669V15.8334C1.83329 16.4964 2.09668 17.1323 2.56553 17.6011C3.03437 18.07 3.67025 18.3333 4.33329 18.3333H12.6666C13.3297 18.3333 13.9656 18.07 14.4344 17.6011C14.9032 17.1323 15.1666 16.4964 15.1666 15.8334V8.73752Z" fill="#353535"/>
</svg>
