<svg width="16" height="17" viewBox="0 0 16 17" fill="none" xmlns="http://www.w3.org/2000/svg">
<path d="M15 7.5H1C0.447719 7.5 0 7.94772 0 8.5C0 9.05228 0.447719 9.5 1 9.5H15C15.5523 9.5 16 9.05228 16 8.5C16 7.94772 15.5523 7.5 15 7.5Z" fill="#353535"/>
<path d="M1 4.83337H15C15.5523 4.83337 16 4.38566 16 3.83337C16 3.28109 15.5523 2.83337 15 2.83337H1C0.447719 2.83337 0 3.28109 0 3.83337C0 4.38566 0.447719 4.83337 1 4.83337Z" fill="#353535"/>
<path d="M15 12.1667H1C0.447719 12.1667 0 12.6145 0 13.1667C0 13.719 0.447719 14.1667 1 14.1667H15C15.5523 14.1667 16 13.719 16 13.1667C16 12.6145 15.5523 12.1667 15 12.1667Z" fill="#353535"/>
</svg>
