<svg width="20" height="20" viewBox="0 0 20 20" fill="none" xmlns="http://www.w3.org/2000/svg">
<g clip-path="url(#clip0_96_1974)">
<path d="M20 2.8833C19.9583 2.02497 19.55 1.22497 18.8833 0.683304C17.6916 -0.291696 15.875 -0.158363 14.7333 0.983304L13.3416 2.37497C12.6666 1.92497 11.8666 1.67497 11.0333 1.67497C9.91664 1.67497 8.87498 2.1083 8.08331 2.89164L5.55831 5.41664C5.23331 5.74164 5.23331 6.26664 5.55831 6.59164C5.88331 6.91664 6.40831 6.91664 6.73331 6.59164L9.25831 4.06664C9.99998 3.32497 11.175 3.16664 12.1083 3.59164L1.72498 13.9916C1.14998 14.5666 0.833309 15.325 0.833309 16.1333C0.833309 16.6583 0.966642 17.1583 1.21664 17.6083L0.249976 18.575C-0.0750244 18.9 -0.0750244 19.425 0.249976 19.75C0.416642 19.9166 0.624976 19.9916 0.841642 19.9916C1.05831 19.9916 1.26664 19.9083 1.43331 19.75L2.39998 18.7833C2.84164 19.0333 3.34998 19.1666 3.87498 19.1666C4.68331 19.1666 5.44998 18.85 6.01664 18.275L19.1083 5.17497C19.7166 4.56664 20.0333 3.7333 19.9916 2.87497L20 2.8833ZM4.83331 17.1C4.31664 17.6166 3.41664 17.6166 2.89998 17.1C2.64164 16.8416 2.49998 16.5 2.49998 16.1333C2.49998 15.7666 2.64164 15.425 2.89998 15.1666L13.4 4.67497L15.3333 6.6083L4.83331 17.1ZM17.9333 3.99997L16.5083 5.42497L14.575 3.49164L15.9083 2.1583C16.2166 1.84997 16.6166 1.69164 17.0083 1.69164C17.3083 1.69164 17.5916 1.7833 17.825 1.97497C18.1333 2.22497 18.3083 2.57497 18.3333 2.96664C18.35 3.34997 18.2083 3.7333 17.9333 3.99997Z" fill="#353535"/>
</g>
<defs>
<clipPath id="clip0_96_1974">
<rect width="20" height="20" fill="white"/>
</clipPath>
</defs>
</svg>
