<svg width="20" height="20" viewBox="0 0 20 20" fill="none" xmlns="http://www.w3.org/2000/svg">
<g clip-path="url(#clip0_822_553)">
<path d="M11.7078 19.4237C11.9803 19.182 12.2386 18.9453 12.4028 18.7812L14.8011 16.4245C14.9485 16.2677 15.0294 16.0599 15.027 15.8448C15.0247 15.6296 14.9392 15.4237 14.7884 15.2701C14.6377 15.1166 14.4334 15.0273 14.2183 15.0209C14.0032 15.0146 13.794 15.0917 13.6344 15.2362L11.2303 17.5978C11.1403 17.6878 11.0178 17.8012 10.8853 17.922L10.8853 2.12618C11.0186 2.24784 11.1419 2.36284 11.2353 2.45951L13.6344 4.81284C13.794 4.95727 14.0032 5.0344 14.2183 5.02807C14.4334 5.02175 14.6377 4.93246 14.7884 4.77891C14.9392 4.62535 15.0247 4.41944 15.027 4.20426C15.0294 3.98909 14.9485 3.78134 14.8011 3.62451L12.4078 1.27201C12.2411 1.10534 11.9803 0.866176 11.7078 0.624509C11.2524 0.220611 10.6648 -0.00260027 10.0561 -0.00299094L10.0461 -0.00299094C9.43714 -0.00180421 8.84953 0.221621 8.39361 0.625342C8.12195 0.866176 7.86362 1.10284 7.69945 1.26618L5.30111 3.62451C5.15377 3.78134 5.07281 3.98909 5.07518 4.20426C5.07755 4.41944 5.16306 4.62535 5.31381 4.77891C5.46457 4.93246 5.66887 5.02175 5.88397 5.02807C6.09906 5.0344 6.30827 4.95727 6.46778 4.81284L8.87278 2.45034C8.96278 2.36034 9.08528 2.24701 9.21778 2.12618L9.21778 17.922C9.08445 17.8012 8.96111 17.6862 8.86778 17.5887L6.46778 15.2362C6.39091 15.1544 6.2983 15.0889 6.19551 15.0438C6.09271 14.9986 5.98186 14.9747 5.8696 14.9735C5.75734 14.9722 5.64598 14.9937 5.54222 15.0366C5.43846 15.0794 5.34443 15.1428 5.26578 15.223C5.18713 15.3031 5.12548 15.3982 5.08452 15.5028C5.04357 15.6073 5.02416 15.719 5.02746 15.8313C5.03076 15.9435 5.0567 16.0539 5.10373 16.1558C5.15075 16.2578 5.21789 16.3492 5.30111 16.4245L7.69528 18.7762C7.86195 18.9428 8.12278 19.1812 8.39528 19.4237C8.85231 19.8279 9.44139 20.051 10.0515 20.051C10.6617 20.051 11.2507 19.8279 11.7078 19.4237Z" fill="#353535"/>
</g>
<defs>
<clipPath id="clip0_822_553">
<rect width="20" height="20" fill="white"/>
</clipPath>
</defs>
</svg>
