<svg width="512" height="512" viewBox="0 0 512 512" fill="none" xmlns="http://www.w3.org/2000/svg">
<g clip-path="url(#clip0_557_432)">
<path d="M512 64V448C512 464.974 505.257 481.253 493.255 493.255C481.253 505.257 464.974 512 448 512C431.026 512 414.748 505.257 402.745 493.255C390.743 481.253 384 464.974 384 448V64C384 47.0261 390.743 30.7475 402.745 18.7451C414.748 6.74282 431.026 0 448 0C464.974 0 481.253 6.74282 493.255 18.7451C505.257 30.7475 512 47.0261 512 64ZM288 0C280.996 0 274.061 1.3795 267.59 4.05975C261.12 6.74 255.24 10.6685 250.288 15.621C245.335 20.5734 241.407 26.4528 238.726 32.9235C236.046 39.3942 234.667 46.3295 234.667 53.3333L234.667 458.667C234.667 472.812 240.286 486.377 250.288 496.379C260.29 506.381 273.855 512 288 512C302.145 512 315.71 506.381 325.712 496.379C335.714 486.377 341.333 472.812 341.333 458.667V53.3333C341.333 46.3295 339.954 39.3942 337.274 32.9235C334.593 26.4528 330.665 20.5734 325.712 15.621C320.76 10.6685 314.88 6.74 308.41 4.05975C301.939 1.3795 295.004 0 288 0ZM149.333 0C138.017 0 127.165 4.49521 119.163 12.4968C111.162 20.4983 106.667 31.3508 106.667 42.6667L106.667 469.333C106.667 480.649 111.162 491.502 119.163 499.503C127.165 507.505 138.017 512 149.333 512C160.649 512 171.502 507.505 179.503 499.503C187.505 491.502 192 480.649 192 469.333L192 42.6667C192 31.3508 187.505 20.4983 179.503 12.4968C171.502 4.49521 160.649 0 149.333 0ZM32 0C23.5131 0 15.3737 3.37142 9.37258 9.37259C3.37142 15.3738 0 23.5131 0 32L0 480C0 488.487 3.37142 496.626 9.37258 502.627C15.3737 508.629 23.5131 512 32 512C40.4869 512 48.6263 508.629 54.6274 502.627C60.6286 496.626 64 488.487 64 480L64 32C64 23.5131 60.6286 15.3738 54.6274 9.37259C48.6263 3.37142 40.4869 0 32 0Z" fill="black"/>
</g>
<defs>
<clipPath id="clip0_557_432">
<rect width="512" height="512" fill="white"/>
</clipPath>
</defs>
</svg>
