<svg width="401" height="2" viewBox="0 0 401 2" fill="none" xmlns="http://www.w3.org/2000/svg">
<path d="M1.52 2H0.08V0.54H1.52V2ZM5.11375 2H3.67375V0.54H5.11375V2ZM8.7075 2H7.2675V0.54H8.7075V2ZM12.3013 2H10.8613V0.54H12.3013V2ZM15.895 2H14.455V0.54H15.895V2ZM19.4888 2H18.0488V0.54H19.4888V2ZM23.0825 2H21.6425V0.54H23.0825V2ZM26.6763 2H25.2363V0.54H26.6763V2ZM30.27 2H28.83V0.54H30.27V2ZM33.8638 2H32.4238V0.54H33.8638V2ZM37.4575 2H36.0175V0.54H37.4575V2ZM41.0513 2H39.6113V0.54H41.0513V2ZM44.645 2H43.205V0.54H44.645V2ZM48.2388 2H46.7988V0.54H48.2388V2ZM51.8325 2H50.3925V0.54H51.8325V2ZM55.4263 2H53.9863V0.54H55.4263V2ZM59.02 2H57.58V0.54H59.02V2ZM62.6138 2H61.1738V0.54H62.6138V2ZM66.2075 2H64.7675V0.54H66.2075V2ZM69.8013 2H68.3613V0.54H69.8013V2ZM73.395 2H71.955V0.54H73.395V2ZM76.9888 2H75.5488V0.54H76.9888V2ZM80.5825 2H79.1425V0.54H80.5825V2ZM84.1763 2H82.7363V0.54H84.1763V2ZM87.77 2H86.33V0.54H87.77V2ZM91.3638 2H89.9238V0.54H91.3638V2ZM94.9575 2H93.5175V0.54H94.9575V2ZM98.5513 2H97.1113V0.54H98.5513V2ZM102.145 2H100.705V0.54H102.145V2ZM105.739 2H104.299V0.54H105.739V2ZM109.333 2H107.893V0.54H109.333V2ZM112.926 2H111.486V0.54H112.926V2ZM116.52 2H115.08V0.54H116.52V2ZM120.114 2H118.674V0.54H120.114V2ZM123.708 2H122.268V0.54H123.708V2ZM127.301 2H125.861V0.54H127.301V2ZM130.895 2H129.455V0.54H130.895V2ZM134.489 2H133.049V0.54H134.489V2ZM138.083 2H136.643V0.54H138.083V2ZM141.676 2H140.236V0.54H141.676V2ZM145.27 2H143.83V0.54H145.27V2ZM148.864 2H147.424V0.54H148.864V2ZM152.458 2H151.018V0.54H152.458V2ZM156.051 2H154.611V0.54H156.051V2ZM159.645 2H158.205V0.54H159.645V2ZM163.239 2H161.799V0.54H163.239V2ZM166.833 2H165.393V0.54H166.833V2ZM170.426 2H168.986V0.54H170.426V2ZM174.02 2H172.58V0.54H174.02V2ZM177.614 2H176.174V0.54H177.614V2ZM181.208 2H179.768V0.54H181.208V2ZM184.801 2H183.361V0.54H184.801V2ZM188.395 2H186.955V0.54H188.395V2ZM191.989 2H190.549V0.54H191.989V2ZM195.583 2H194.143V0.54H195.583V2ZM199.176 2H197.736V0.54H199.176V2ZM202.77 2H201.33V0.54H202.77V2ZM206.364 2H204.924V0.54H206.364V2ZM209.958 2H208.518V0.54H209.958V2ZM213.551 2H212.111V0.54H213.551V2ZM217.145 2H215.705V0.54H217.145V2ZM220.739 2H219.299V0.54H220.739V2ZM224.333 2H222.893V0.54H224.333V2ZM227.926 2H226.486V0.54H227.926V2ZM231.52 2H230.08V0.54H231.52V2ZM235.114 2H233.674V0.54H235.114V2ZM238.708 2H237.268V0.54H238.708V2ZM242.301 2H240.861V0.54H242.301V2ZM245.895 2H244.455V0.54H245.895V2ZM249.489 2H248.049V0.54H249.489V2ZM253.083 2H251.643V0.54H253.083V2ZM256.676 2H255.236V0.54H256.676V2ZM260.27 2H258.83V0.54H260.27V2ZM263.864 2H262.424V0.54H263.864V2ZM267.458 2H266.018V0.54H267.458V2ZM271.051 2H269.611V0.54H271.051V2ZM274.645 2H273.205V0.54H274.645V2ZM278.239 2H276.799V0.54H278.239V2ZM281.833 2H280.393V0.54H281.833V2ZM285.426 2H283.986V0.54H285.426V2ZM289.02 2H287.58V0.54H289.02V2ZM292.614 2H291.174V0.54H292.614V2ZM296.208 2H294.768V0.54H296.208V2ZM299.801 2H298.361V0.54H299.801V2ZM303.395 2H301.955V0.54H303.395V2ZM306.989 2H305.549V0.54H306.989V2ZM310.583 2H309.143V0.54H310.583V2ZM314.176 2H312.736V0.54H314.176V2ZM317.77 2H316.33V0.54H317.77V2ZM321.364 2H319.924V0.54H321.364V2ZM324.958 2H323.518V0.54H324.958V2ZM328.551 2H327.111V0.54H328.551V2ZM332.145 2H330.705V0.54H332.145V2ZM335.739 2H334.299V0.54H335.739V2ZM339.333 2H337.893V0.54H339.333V2ZM342.926 2H341.486V0.54H342.926V2ZM346.52 2H345.08V0.54H346.52V2ZM350.114 2H348.674V0.54H350.114V2ZM353.708 2H352.268V0.54H353.708V2ZM357.301 2H355.861V0.54H357.301V2ZM360.895 2H359.455V0.54H360.895V2ZM364.489 2H363.049V0.54H364.489V2ZM368.083 2H366.643V0.54H368.083V2ZM371.676 2H370.236V0.54H371.676V2ZM375.27 2H373.83V0.54H375.27V2ZM378.864 2H377.424V0.54H378.864V2ZM382.458 2H381.018V0.54H382.458V2ZM386.051 2H384.611V0.54H386.051V2ZM389.645 2H388.205V0.54H389.645V2ZM393.239 2H391.799V0.54H393.239V2ZM396.833 2H395.393V0.54H396.833V2ZM400.426 2H398.986V0.54H400.426V2Z" fill="white"/>
</svg>
