<svg width="24" height="24" viewBox="0 0 24 24" fill="none" xmlns="http://www.w3.org/2000/svg">
<g clip-path="url(#clip0_47_1414)">
<path d="M22.485 10.975L12 17.267L1.515 10.975C1.28758 10.8385 1.01526 10.798 0.757962 10.8623C0.500662 10.9267 0.279453 11.0906 0.143 11.318C0.00654566 11.5454 -0.0339759 11.8177 0.030349 12.075C0.094674 12.3323 0.258576 12.5535 0.486 12.69L11.486 19.29C11.6415 19.3834 11.8196 19.4328 12.001 19.4328C12.1824 19.4328 12.3605 19.3834 12.516 19.29L23.516 12.69C23.7434 12.5535 23.9073 12.3323 23.9717 12.075C24.036 11.8177 23.9955 11.5454 23.859 11.318C23.7225 11.0906 23.5013 10.9267 23.244 10.8623C22.9867 10.798 22.7144 10.8385 22.487 10.975H22.485Z" fill="black"/>
<path d="M22.485 15.543L12 21.834L1.515 15.543C1.40239 15.4754 1.27757 15.4307 1.14768 15.4114C1.01779 15.392 0.885361 15.3985 0.757959 15.4303C0.630557 15.4622 0.510676 15.5188 0.405161 15.597C0.299645 15.6752 0.210562 15.7734 0.142997 15.886C0.0754315 15.9986 0.0307078 16.1234 0.0113792 16.2533C-0.00794938 16.3832 -0.00150444 16.5156 0.0303461 16.643C0.094671 16.9003 0.258573 17.1215 0.485997 17.258L11.486 23.858C11.6415 23.9514 11.8196 24.0008 12.001 24.0008C12.1824 24.0008 12.3605 23.9514 12.516 23.858L23.516 17.258C23.7434 17.1215 23.9073 16.9003 23.9716 16.643C24.036 16.3857 23.9955 16.1134 23.859 15.886C23.7225 15.6586 23.5013 15.4947 23.244 15.4303C22.9867 15.366 22.7144 15.4065 22.487 15.543H22.485Z" fill="black"/>
<path d="M12 14.773C11.4606 14.7727 10.9314 14.6258 10.469 14.348L0.485004 8.357C0.337152 8.26809 0.214815 8.14245 0.129885 7.99228C0.0449547 7.84211 0.000320435 7.67252 0.000320435 7.5C0.000320435 7.32747 0.0449547 7.15788 0.129885 7.00771C0.214815 6.85754 0.337152 6.7319 0.485004 6.643L10.469 0.651995C10.9314 0.374224 11.4606 0.227478 12 0.227478C12.5394 0.227478 13.0686 0.374224 13.531 0.651995L23.515 6.643C23.6629 6.7319 23.7852 6.85754 23.8701 7.00771C23.9551 7.15788 23.9997 7.32747 23.9997 7.5C23.9997 7.67252 23.9551 7.84211 23.8701 7.99228C23.7852 8.14245 23.6629 8.26809 23.515 8.357L13.531 14.348C13.0686 14.6258 12.5394 14.7727 12 14.773ZM2.944 7.5L11.5 12.633C11.6511 12.7234 11.8239 12.7711 12 12.7711C12.1761 12.7711 12.3489 12.7234 12.5 12.633L21.056 7.5L12.5 2.36699C12.3489 2.2766 12.1761 2.22886 12 2.22886C11.8239 2.22886 11.6511 2.2766 11.5 2.36699L2.944 7.5Z" fill="black"/>
</g>
<defs>
<clipPath id="clip0_47_1414">
<rect width="24" height="24" fill="white"/>
</clipPath>
</defs>
</svg>
