<svg width="20" height="20" viewBox="0 0 20 20" fill="none" xmlns="http://www.w3.org/2000/svg">
<g clip-path="url(#clip0_108_700)">
<path d="M10.8333 0.833333V19.1667C10.8333 19.625 10.4583 20 9.99997 20C9.54163 20 9.16663 19.625 9.16663 19.1667V0.833333C9.16663 0.375 9.54163 0 9.99997 0C10.4583 0 10.8333 0.375 10.8333 0.833333ZM7.49997 10C7.49997 10.5417 7.26663 11.0667 6.86663 11.425L2.6333 15.4167C2.3333 15.6917 1.9583 15.8333 1.57497 15.8333C1.3583 15.8333 1.14997 15.7917 0.941634 15.7C0.366634 15.45 0.00830078 14.9 0.00830078 14.2667V5.73333C0.00830078 5.10833 0.366634 4.55833 0.941634 4.3C1.51663 4.05 2.16663 4.15 2.62497 4.575L6.8833 8.58333C7.27497 8.93333 7.5083 9.45 7.5083 9.99167L7.49997 10ZM5.8333 10C5.8333 10 5.82497 9.88333 5.74997 9.81667L1.66663 5.975V14.0333L5.7333 10.2C5.81663 10.125 5.8333 10.0417 5.8333 10ZM20 5.73333V14.275C20 14.9 19.6416 15.45 19.0666 15.7083C18.8583 15.8 18.6416 15.8417 18.4333 15.8417C18.05 15.8417 17.6833 15.7 17.3833 15.425L13.125 11.4167C12.7333 11.0667 12.5 10.55 12.5 10.0083C12.5 9.46667 12.7333 8.95 13.1333 8.58333L17.3666 4.59167C17.8416 4.15833 18.4833 4.05 19.0583 4.30833C19.6333 4.55833 19.9916 5.10833 19.9916 5.74167L20 5.73333Z" fill="#353535"/>
</g>
<defs>
<clipPath id="clip0_108_700">
<rect width="20" height="20" fill="white"/>
</clipPath>
</defs>
</svg>
