<svg width="20" height="20" viewBox="0 0 20 20" fill="none" xmlns="http://www.w3.org/2000/svg">
<g clip-path="url(#clip0_96_2112)">
<path d="M20 19.1667C20 19.6275 19.6275 20 19.1667 20H15.8333C15.3725 20 15 19.6275 15 19.1667C15 18.7058 15.3725 18.3333 15.8333 18.3333H16.6667V10.4167H3.33333V18.3333H4.16667C4.6275 18.3333 5 18.7058 5 19.1667C5 19.6275 4.6275 20 4.16667 20H0.833333C0.3725 20 0 19.6275 0 19.1667C0 18.7058 0.3725 18.3333 0.833333 18.3333H1.66667V1.66667H0.833333C0.3725 1.66667 0 1.29417 0 0.833333C0 0.3725 0.3725 0 0.833333 0H4.16667C4.6275 0 5 0.3725 5 0.833333C5 1.29417 4.6275 1.66667 4.16667 1.66667H3.33333V8.75H16.6667V1.66667H15.8333C15.3725 1.66667 15 1.29417 15 0.833333C15 0.3725 15.3725 0 15.8333 0H19.1667C19.6275 0 20 0.3725 20 0.833333C20 1.29417 19.6275 1.66667 19.1667 1.66667H18.3333V18.3333H19.1667C19.6275 18.3333 20 18.7058 20 19.1667Z" fill="#353535"/>
</g>
<defs>
<clipPath id="clip0_96_2112">
<rect width="20" height="20" fill="white"/>
</clipPath>
</defs>
</svg>
